<?xml version="1.0" encoding="UTF-8" standalone="no"?>
<!-- Created with Inkscape (http://www.inkscape.org/) -->

<svg
   xmlns:dc="http://purl.org/dc/elements/1.1/"
   xmlns:cc="http://creativecommons.org/ns#"
   xmlns:rdf="http://www.w3.org/1999/02/22-rdf-syntax-ns#"
   xmlns:svg="http://www.w3.org/2000/svg"
   xmlns="http://www.w3.org/2000/svg"
   xmlns:sodipodi="http://sodipodi.sourceforge.net/DTD/sodipodi-0.dtd"
   xmlns:inkscape="http://www.inkscape.org/namespaces/inkscape"
   width="1024"
   height="768"
   id="svg2"
   version="1.1"
   inkscape:version="0.48.3.1 r9886"
   sodipodi:docname="texture_1.svg">
  <defs
     id="defs4" />
  <sodipodi:namedview
     id="base"
     pagecolor="#ffffff"
     bordercolor="#666666"
     borderopacity="1.0"
     inkscape:pageopacity="0.0"
     inkscape:pageshadow="2"
     inkscape:zoom="0.49497475"
     inkscape:cx="479.06551"
     inkscape:cy="385.26779"
     inkscape:document-units="px"
     inkscape:current-layer="g3087"
     showgrid="true"
     inkscape:window-width="1091"
     inkscape:window-height="741"
     inkscape:window-x="278"
     inkscape:window-y="102"
     inkscape:window-maximized="0">
    <inkscape:grid
       type="xygrid"
       id="grid3041"
       empspacing="5"
       visible="true"
       enabled="true"
       snapvisiblegridlinesonly="true"
       spacingx="32px"
       spacingy="32px" />
  </sodipodi:namedview>
  <metadata
     id="metadata7">
    <rdf:RDF>
      <cc:Work
         rdf:about="">
        <dc:format>image/svg+xml</dc:format>
        <dc:type
           rdf:resource="http://purl.org/dc/dcmitype/StillImage" />
        <dc:title></dc:title>
      </cc:Work>
    </rdf:RDF>
  </metadata>
  <g
     inkscape:label="Layer 1"
     inkscape:groupmode="layer"
     id="layer1"
     transform="translate(0,-284.36218)">
    <path
       style="fill:#000000"
       d="m 469.71875,284.36218 c 9.9005,38.19653 13.14369,78.53364 33.46875,113.28125 -16.04828,20.42341 -32.41158,98.76174 -10.4375,37.8125 18.61629,-34.9119 49.59347,-62.21986 33.02545,-105.66451 9.17309,-22.3182 -2.88245,-60.26772 -25.3379,-42.02299 3.70663,23.33504 25.87326,62.83952 17.09375,76.8125 -14.31056,-23.93736 -28.38622,-66.78588 -47.81255,-80.21875 z M 386.5,284.39343 c -23.72451,-5.2914 -35.78871,7.24152 -45.71875,28.1875 -25.90048,18.33868 -31.46299,75.09621 -41.65625,84.9375 -27.12555,-25.97978 -3.67941,-49.77334 -3.88277,-78.6092 9.22105,-21.39242 -9.69459,-50.20644 -22.67973,-27.7658 9.24557,42.22609 -20.73322,83.21985 -2.25,124.78125 11.13582,16.3605 7.09052,85.47497 28.625,36.78125 22.19025,-38.94563 22.75648,-88.79328 56.59577,-121.53117 11.13592,-15.03383 22.31864,-30.13132 30.96673,-46.78133 z M 0,284.42468 c -1.1718089,21.76296 0.10294926,50.95233 12.529991,11.41665 C 19.200027,281.01707 9.5393447,284.81746 0,284.42468 z m 41.6875,0 C 29.39638,295.04168 18.584528,327.56502 0,341.45593 c 0.68082751,16.06766 -2.2088774,77.85375 3.46875,41.84375 9.572386,-14.21466 24.416439,-84.88887 19.3125,-40 -12.300434,39.73102 -8.997544,81.02904 0.471024,121.07324 C 22.098576,508.89148 29.320926,554.39795 2.78125,593.83093 -9.0125872,643.75727 27.710855,567.49185 37.407308,551.74451 59.338401,519.17525 95.8114,495.06039 98.540447,452.1422 104.36098,424.34857 119.398,371.04656 130.6875,360.89343 c -17.83318,44.61126 -14.52816,91.54636 -3.53723,136.86032 -11.73161,45.86319 9.75743,87.391 18.16223,130.95218 7.45827,20.18415 1.30329,73.7719 18.47105,77.05765 3.81244,-78.08822 2.51803,-156.9435 -11.02701,-234.09909 -4.0206,-43.19278 -11.75876,-85.17056 -11.88384,-128.64749 -7.39846,-34.78517 25.1451,-69.7398 -25.2327,-58.59232 -27.614017,21.93801 -22.886958,72.73556 -21.967955,106.90757 3.238674,17.0169 -5.541665,48.43404 -6.706352,13.26604 C 82.360705,366.78888 84.938762,313.29256 78.22375,284.42468 46.185593,286.84109 55.111313,344.79194 63.03612,366.83581 82.742623,411.35835 75.020482,466.01138 50.41405,506.87908 17.445861,558.9011 47.614293,484.00623 44.565324,463.15303 49.6876,403.67845 19.72857,341.88785 45.884801,284.58699 L 41.6875,284.42468 z m 126.9375,0 c -16.57351,51.69123 5.7076,105.10696 4.22644,157.55733 1.25836,23.96517 38.1092,50.8154 27.42981,7.22392 5.34709,-30.66907 12.67672,-68.03169 -3.1875,-96.5625 -38.25797,-25.77225 39.15592,-79.94545 -17.43,-68.21875 -3.67958,0 -7.35917,0 -11.03875,0 z m 56.125,0 c -33.32531,1.34399 -17.43883,99.356 -9.86783,45.40819 -3.89714,-14.5941 15.52055,-39.43797 9.86783,-45.40819 z m 25.78125,0 c -19.00119,18.61719 -19.56258,89.33798 6.46875,80.625 -2.85767,-22.64384 2.29123,-71.79237 -6.46875,-80.625 z m 62.34375,0 c -14.37097,2.81495 3.05014,25.40013 5.8125,0.375 l -5.8125,-0.375 z m 17.34375,0 c -11.99101,19.3121 -22.81643,70.47487 0.78158,26.18162 3.73161,-11.77561 25.58845,-31.04744 -0.78158,-26.18162 z m 85.9375,0 c -2.18266,38.36776 -46.87903,55.22527 -45.65625,94.71875 -2.95335,23.98771 -23.5059,74.97451 -35.99985,71.53144 24.24564,-30.75783 34.04174,-87.57891 31.7811,-116.25019 -24.28875,30.36061 -19.42216,78.4046 -49.90625,108.6875 -12.74415,19.943 -41.28337,67.53498 6.15625,47.40625 28.87686,17.06101 38.04025,63.74942 29.09375,96.25 -14.40026,39.89141 3.55808,88.60787 -31.38417,120.31597 -24.17445,37.77524 -43.99051,77.07123 -43.11583,122.87153 -5.494,44.40375 -28.48686,83.78401 -48.6875,122.21875 -9.34594,24.76028 -47.0435,69.07202 -37.46875,84.93752 49.35924,-50.60597 78.07278,-116.93402 100.86346,-182.95977 3.6732,-22.73278 24.03559,-99.8 28.10529,-88.8215 -6.80424,42.12104 -11.32514,85.33107 -20.1562,127.53125 -5.74411,22.65473 -4.79831,37.93509 10.0041,9.28095 15.38669,-41.19892 24.88068,-88.34211 63.74636,-114.97163 17.81621,-43.0209 40.1314,-82.19371 70.37524,-118.12373 20.76215,-32.78943 43.45088,-65.54131 53.59112,-103.45414 -25.90037,33.17711 -57.67688,62.1454 -76.0767,100.77676 -14.42738,13.25253 -43.85565,59.55527 -51.85887,53.05429 11.68097,-42.82958 36.64455,-81.66901 42.625,-126.46875 24.53511,-42.60315 -5.42507,-88.31887 8.43802,-133.96067 -6.53993,-42.91598 6.5342,-83.61518 13.62448,-125.28933 -1.77221,-30.00287 34.10217,-58.86074 -18.0938,-49.28125 z m 119.03125,0 c 4.31465,34.86194 7.14323,72.08438 4.28975,105.2907 -18.72641,22.25965 -40.11507,67.08374 -29.43187,88.2029 38.57472,-24.65237 71.59737,-76.27707 42.78936,-120.33539 -18.26263,-57.53415 25.51124,55.56059 23.26897,-4.86063 -0.18369,-22.68955 -0.90534,-74.67753 -33.81746,-68.29758 -2.36625,0 -4.7325,0 -7.09875,0 z m 90.625,0 c -13.15208,0.95377 -11.39724,30.74219 -15.59375,0.15625 -21.75338,-1.20371 -47.98047,-3.37948 -17.56378,19.75999 10.58804,19.73533 -6.92694,82.16862 1.66616,75.90243 -15.57066,-37.57703 -3.19091,42.82342 -16.44613,55.43133 -5.6089,21.35595 -39.24634,91.72067 -6.48561,41.9533 27.8603,-49.18424 41.41259,-104.40914 50.1121,-159.70602 -1.76558,-8.50535 22.31868,-36.9153 4.31101,-33.49728 z m 19.375,0 c -7.86551,14.94691 -25.16579,71.17934 -0.15625,33 -2.32878,-14.65718 29.37287,-39.66133 0.15625,-33 z m 49.8125,0 c -36.44773,21.02142 -59.91711,56.63869 -68.75,97.59375 -18.97922,45.97483 -29.97673,99.11688 -72.69509,130.17533 -18.14303,35.58032 -45.0713,61.05025 -65.14866,94.35592 -26.46103,35.99377 -39.44293,78.45894 -60.88894,116.25375 -9.10559,43.24888 -20.56752,86.89911 -23.68807,131.20261 0.66042,60.85533 10.85948,121.00239 22.38951,180.38736 -7.98217,25.4241 27.13701,19.04 35.73554,15.3855 -10.48382,-43.8044 -5.63928,-89.4095 -20.32506,-131.68528 5.70667,-32.86663 -4.55294,-86.59792 -2.70636,-81.38771 -12.40912,30.31636 -10.3687,63.01465 -10.29782,95.00002 -5.5466,-15.51646 -5.90104,-31.6639 -13.21343,-19.313 -1.49911,-70.69459 41.37623,-131.12374 65.43218,-194.8745 17.41806,-48.03998 63.17861,-80.42248 76.2881,-130.94642 14.98646,-34.76554 19.51094,-75.33476 37.3369,-107.55358 -8.96516,42.8474 -20.49336,88.12941 -6.73022,131.15309 -3.80828,40.47078 3.37202,83.97895 -13.73853,121.87816 -11.85522,26.17869 -24.50432,77.60727 -37.6875,89.1875 1.72444,-45.73656 29.31759,-86.73538 19.46875,-134.625 3.75583,-19.31052 6.23637,-104.39282 -11.53125,-47.8125 -13.81568,42.05426 -16.63306,86.89041 -8.25,130.09375 -7.47095,42.01223 -23.57806,81.96911 -21.73492,125.29761 -4.87713,53.53943 38.98628,105.43974 13.67242,157.88986 33.97314,8.6243 38.9283,-6.856 28.1875,-37.1875 -2.55536,-45.35364 -16.69866,-89.46953 -10.7506,-135.2188 -5.4421,-53.28528 17.75646,-102.78056 44.3756,-147.28117 15.91396,-43.42378 67.42631,-62.4077 74.46875,-110.78125 10.68126,-37.30145 15.48174,-77.14874 34.59375,-111.625 -11.05134,44.12518 -20.62463,91.14686 -5.4375,135.65625 -5.65597,49.19418 1.55185,96.42059 20.4767,142.07891 12.06475,30.71101 4.8288,74.51395 24.2733,98.10859 3.32111,-101.59871 -9.9135,-202.97961 -21.42451,-303.79687 -7.94826,-42.74478 -13.92825,-89.55953 -3.13799,-132.35938 25.6983,-37.31794 70.34927,-56.59225 90.79677,-98.00285 10.35672,-20.47113 61.26932,-90.08065 10.73448,-59.80965 -29.42276,33.44371 -67.71855,59.16558 -87.9375,100.71875 -10.41596,12.76046 -37.24081,73.11524 -21.62977,22.81302 12.19767,-43.28183 16.77164,-88.49092 34.22352,-130.31302 C 724.88534,283.84922 709.90729,284.64494 695,284.42468 z m 53.75,0 c 1.29028,16.32285 -35.346,94.72825 -3.43701,56.65523 1.65122,-16.65926 55.88876,-63.77599 15.87701,-56.65523 -4.14667,0 -8.29333,0 -12.44,0 z m 110.0625,0 c -23.9605,41.7694 -38.72404,87.63308 -53.36741,133.14042 -18.83729,16.92089 -49.3492,88.64963 -24.75759,84.73458 2.23926,-56.73828 49.22031,-95.72926 73.71875,-143.5 6.11448,-21.15951 41.52856,-67.37367 25.26359,-74.34701 -6.95234,-0.0499 -13.9049,-0.0199 -20.85734,-0.028 z m 48.1875,0 c -15.10825,33.75652 -38.09871,65.6086 -43.4375,102.71875 3.63509,26.9457 16.4963,-43.422 29.36539,-53.1476 2.79847,-20.08265 64.06366,-56.58184 19.14211,-49.57115 l -2.56,0 -2.51,0 z m 58.75,0 c -30.52147,39.23521 22.06559,11.51187 12.16125,0 -4.05375,0 -8.1075,0 -12.16125,0 z m 30.84375,0 c -38.5818,32.10278 -51.04974,82.31704 -75.21722,124.38308 -11.01157,27.67717 -41.56906,64.64042 -35.53278,88.64817 30.64327,-46.93167 53.55973,-99.27196 92.83597,-140.29924 8.9132,-16.32691 70.26028,-85.09649 17.91403,-72.73201 z m -865.1875,0.75 c 0.36941,6.85404 -4.67848,8.15905 0,0 z m 328.375,5.84375 c -22.56591,49.27853 8.67334,98.5214 -0.71875,147.75 -0.0785,-17.85987 -9.80648,-67.05388 -19.68886,-20.99936 -5.45502,37.54043 -4.13261,75.57162 -7.43614,113.31186 24.61658,-23.3977 23.6962,-73.20478 44.15625,-104.78125 21.56397,-32.75124 -20.60368,-60.33159 -7.34375,-95.03125 0.36633,-13.93439 -2.09873,-27.99052 -8.96875,-40.25 z m 479.09375,1.46875 c -40.12073,38.06588 -69.53002,91.06185 -63.65896,147.91974 -0.72563,56.61398 33.66756,-30.60315 42.64033,-48.21924 20.89338,-10.35678 42.4128,-86.53812 9.42163,-39.49359 -20.5922,18.21587 -34.10827,69.13736 -45.21327,75.95791 -4.33977,-53.80974 57.47336,-83.20608 56.81027,-136.16482 z m -217.65625,3.46875 c -23.04403,34.66882 -53.86792,67.24538 -67.91102,108.17762 -19.4774,34.60549 -40.11675,74.72996 -22.99518,114.82238 21.57918,58.32421 10.69869,130.58052 -36.46875,173.4375 19.02964,-52.31527 21.26305,-108.87874 10.31633,-163.24419 -7.18434,-47.75946 4.43905,-98.01587 38.10611,-133.72887 24.14315,-34.63962 45.73516,-72.50375 78.95251,-99.46444 z M 1024,308.92468 c -12.2116,17.18183 -40.95865,84.88843 0,42.96875 0,-14.32292 0,-28.64583 0,-42.96875 z M 5.5,323.39343 c -8.611334,4.35634 -4.90005345,12.21561 0,0 z m 699.15625,7.6875 c -22.64581,36.00325 -5.92388,81.38805 -29.46852,116.22334 -22.82592,42.29683 -11.4214,91.78466 -16.93335,136.88941 -9.17282,-39.17352 -4.56814,-80.86757 -8.39232,-120.99657 -0.006,-48.84224 25.19149,-94.86548 54.79419,-132.11618 z M 408.625,352.01843 c -20.5717,35.49152 -9.47964,78.82439 0.65927,115.91873 2.91256,20.30093 -10.15342,73.75082 -9.69129,23.63725 4.24725,-40.50704 -22.62709,-85.29149 -5.53058,-122.14973 4.70473,-5.91831 9.11636,-12.11954 14.5626,-17.40625 z m -180.53125,4.96875 c -1.96559,39.04685 -16.34449,78.75068 -5.96875,118.4375 7.65646,44.76175 6.85186,90.13238 8.5799,134.90548 11.06562,42.87652 39.92507,82.34314 30.20459,129.11461 -3.75618,46.90119 -40.50636,78.78265 -57.12824,120.26116 -20.56532,43.1987 -34.44159,89.25127 -57.30774,131.77665 -2.04361,15.10152 -46.2469,75.73982 -11.91101,56.50462 29.86296,-45.0426 80.02621,-76.68773 97.09965,-129.30949 15.49249,-29.33677 39.6885,-80.36126 33.11231,-102.90113 -19.54925,40.3809 -44.45341,78.05337 -61.93071,119.3356 -17.04461,15.00791 -50.61564,83.44332 -28.54361,26.62703 20.91609,-47.59939 44.13561,-93.35727 67.43179,-139.86331 10.13804,-40.35034 46.93687,-73.04524 39.58057,-116.91997 -4.55395,-44.0113 1.02485,-91.77313 -26.5625,-129.6875 -30.5894,-51.78637 6.1514,-114.72773 -16.3162,-168.77394 -4.15715,-16.24544 -5.32863,-33.77181 -10.34005,-49.50731 z M 1024,379.42468 c -8.7187,38.11644 -41.09937,64.37305 -49.23372,102.54004 -31.89658,31.47207 -36.90023,74.00044 -47.71061,115.61626 -3.04631,19.64639 -37.74758,54.17544 -12.68578,14.34764 14.36698,-31.28841 22.65867,-81.22493 20.03636,-107.12894 -22.16782,36.63831 -24.90739,87.19292 -51.52223,125.57319 -29.75291,36.66032 -3.47699,39.0194 25.41835,41.14816 22.95738,36.99339 29.72397,81.88105 18.29138,123.8724 4.66819,46.53956 -16.22495,83.85653 -40.81862,121.7455 -24.26375,35.24131 -16.29979,78.37674 -24.49388,117.75447 -20.6579,22.8227 24.62524,25.126 19.9375,2.375 7.83043,-35.7947 9.46319,-75.16909 28.02184,-107.3802 -13.1728,39.5038 -4.4704,81.5895 -15.05309,121.3177 36.9119,8.2374 23.08424,-60.16481 57.286,-72.85887 25.38905,-32.45334 28.64653,-77.27053 59.589,-106.17235 17.9958,-16.12605 12.0725,-39.35503 12.9375,-60.53125 -17.6199,34.77519 -43.56498,63.33403 -68.94873,92.53878 -1.21322,-41.12513 30.73236,-77.6442 35.13623,-119.38253 23.8803,-47.6373 -10.66352,-92.36866 -2.06411,-141.5147 -4.67637,-42.04521 5.63532,-82.42359 11.76956,-123.31461 -0.37665,-33.85611 18.84795,-63.98442 24.10705,-95.53569 0,-15.00333 0,-30.00667 0,-45.01 z m -43.59375,10.9375 c -40.8574,22.462 -50.51021,73.06503 -83.28125,103.9375 -14.00151,18.85071 -22.85197,67.92621 -26.53125,70.09375 -33.43353,-35.99957 4.89497,-76.36549 -8.38318,-118.60046 8.64665,-27.71121 -34.12421,-63.20966 -22.87223,-15.85784 9.73407,41.05299 -4.90417,80.75221 -4.6517,121.45799 8.65083,24.97496 16.0702,82.10244 28.32208,88.9009 31.56325,-40.14098 19.85431,-100.101 58.46003,-136.11934 22.77368,-35.66672 56.4614,-69.7247 58.9375,-113.8125 z m -198.84375,9.40625 c -43.54735,21.41735 -58.23775,69.40702 -50.25082,114.69472 14.29292,38.63222 -1.27117,85.93627 25.06332,119.33653 28.29634,32.13236 11.8523,-40.39614 20.71875,-55.71875 2.20564,-38.23446 -16.255,-69.61979 -21.33068,-105.51746 3.87462,-13.03138 50.29774,-57.67199 16.68261,-43.57924 -1.11423,-10.39785 12.70904,-20.018 9.11682,-29.2158 z m 48.6875,31.46875 c -26.27656,22.42097 -37.99877,94.44687 -4.06379,97.38592 1.32475,-34.07559 -10.967,-66.56388 4.06379,-97.38592 z m -130.46875,8.15625 c 1.2752,8.55654 -4.92485,11.14422 0,0 z m -435.625,10.375 c -16.93869,45.14007 -0.66074,94.38774 25.98702,132.08699 18.51167,40.30244 19.38734,85.58851 14.11768,128.72896 19.51936,-44.39004 25.56649,-97.39186 0.72985,-141.09401 -14.25312,-44.17363 25.51503,28.97535 26.16545,46.84056 4.72887,14.07737 14.78208,-52.77926 4.66199,-68.53048 -8.74616,-44.4699 -68.33765,-39.39335 -68.74467,-87.94233 -1.53716,-3.05999 -0.78785,-7.26645 -2.91732,-10.08969 z m -104.96875,8.34375 c 6.0969,49.68193 25.0249,98.09076 20.85855,149.0821 -0.43639,42.02063 -10.69695,83.46656 -1.65775,125.49602 11.28563,35.49975 7.66618,77.78134 2.5492,110.64063 31.90422,-36.33263 14.65711,-78.83792 20.54775,-119.7221 11.67509,-44.18009 -4.1439,-89.84582 11.85925,-133.47141 -2.20321,-45.90687 -0.21497,-99.28672 -46.94722,-122.8906 l -3.05353,-4.16589 -4.15625,-4.96875 z m 333.71875,3.5625 c -32.36152,35.8785 -57.52295,79.44228 -71.50485,125.7036 1.31425,22.66097 26.92351,-40.33026 39.50485,-47.7661 17.66605,-22.46694 33.13527,-48.27387 32,-77.9375 z m 55.15625,7.3125 c -43.06945,12.83962 -55.66205,59.99848 -89.91987,84.17134 -29.46583,32.96574 -49.52296,76.33903 -57.08013,118.57866 30.68917,-18.17157 44.76431,-66.31995 75.46875,-91.03125 17.83003,-41.80413 64.56881,-63.03434 72.625,-110.25 l 0.11803,-1.19149 -1.21178,-0.27726 z M 1024,474.42468 c -7.5048,18.88387 -3.0122,94.68769 0,80.66125 0,-26.88708 0,-53.77417 0,-80.66125 z m -660.40625,10.84375 c 16.15033,30.45463 18.44299,62.97554 19.97574,96.99742 -6.91549,36.90685 4.58202,76.58231 -16.94449,110.40883 3.51808,-25.83842 -3.51086,-45.67244 -9.9375,-11.21875 -6.44176,21.06473 -22.78028,79.64809 -11.88842,26.7083 15.7687,-48.88673 17.64939,-100.78744 32.16602,-149.98048 4.71804,-26.27381 -24.1684,-46.0009 -13.37135,-72.91532 z M 95.6875,486.23718 c -26.915942,52.91826 -18.796908,114.48175 -29.232112,171.0649 -12.32184,40.26905 -27.727521,81.52856 -20.983184,124.17864 13.232089,41.38784 25.324331,89.586 1.672333,129.95027 C 41.914722,945.71186 -3.7555778,961.39794 0.16442541,996.21777 7.2587582,1010.4571 -2.5591446,1080.525 7.9288039,1036.5225 2.8100613,993.91687 50.920826,971.08867 57.271158,929.56862 c 25.990813,-37.07175 16.84419,-80.89315 11.279226,-121.7908 11.194514,3.97424 -0.8274,16.80236 15.105866,33.24061 7.590277,-36.8544 4.909584,-42.36429 3.03125,-84.65625 -2.802164,-37.0931 14.43128,-74.20039 8.25,-112.625 13.37324,-42.83261 0.34782,-86.05532 -1.002151,-129.43348 -0.386872,-9.39634 2.469554,-18.72823 1.752151,-28.06652 z m 700.34375,31.25 c -0.29718,37.60648 -8.91893,76.19688 -3.44765,114.49322 12.15485,46.60758 11.25998,94.84565 12.30694,142.44025 5.03164,47.86047 48.20557,85.05541 39.20321,135.50408 4.20259,45.40744 -25.29549,83.77735 -48.46875,119.59377 -26.48564,19.4331 5.06055,35.1084 14.5625,13.0937 19.72701,-43.43151 40.37271,-87.18418 54.0625,-132.90622 -2.48496,-44.96615 -0.90147,-93.44033 -19.77208,-135.1939 -31.67173,-36.98032 -27.03943,-86.00276 -25.85911,-131.14768 5.78077,-43.3137 -13.98994,-82.72322 -21.58761,-124.28342 l -1,-1.59375 5e-5,-5e-5 z m 178.6875,11.4375 c -15.9652,31.00813 -9.52041,68.40215 -1.7839,101.25133 11.45934,17.30415 4.74121,99.97006 -1.2161,44.27992 -4.15345,-40.76798 -15.57384,-81.34298 -15.51205,-122.14395 5.89145,-7.94975 11.62278,-16.26249 18.51205,-23.3873 z M 33.6875,574.48718 C 13.186051,612.05152 -7.1451303,651.67139 0.14249633,695.86119 -0.94656549,755.69185 -0.33995691,815.97803 17.016015,873.83216 22.24787,894.82712 13.762329,958.56063 18.015679,951.84117 45.652267,908.04364 45.052786,852.70826 39.375,802.79968 28.660525,766.60117 19.132379,731.35379 31.160815,694.48283 23.738722,654.28522 27.501081,614.53915 33.6875,574.48718 z m 983.7813,0.875 c -21.95267,35.61241 -9.2029,78.82283 -14.9688,117.9687 1.9005,50.27838 25.6651,-25.76492 21.5,-45.11 -2.2253,-23.94331 5.1615,-49.96528 -5.1562,-72.2025 l -1.375,-0.65625 0,5e-5 z m -504.43755,30.1875 c -13.55973,45.56498 -30.38969,90.72417 -60.87899,128.15648 -18.13275,19.10085 -33.02817,81.81776 -36.77726,82.59357 3.42028,-45.65765 24.5868,-86.22237 49.03125,-123.9375 15.26605,-29.53128 27.25719,-60.81802 48.625,-86.81255 z M 837,617.83093 c -13.2729,46.39618 -0.14209,96.00472 28.37261,133.89828 21.76438,41.07381 26.4447,89.13282 22.34609,134.85172 12.58458,-31.98354 18.74001,-69.16239 11.72701,-102.92078 -4.6846,-17.05978 -35.78702,-84.00343 -6.39904,-35.75331 15.12345,17.74712 23.93474,85.65938 24.63755,30.15753 11.1828,-52.36669 -28.07049,-91.84756 -65.71547,-116.70219 C 844.52995,647.72315 840.76439,632.75239 837,617.83093 z m -711.25,3.4375 c -19.24613,38.91939 2.76579,83.04236 -11.45253,122.79395 13.57945,38.49089 30.92198,80.42081 14.67133,121.1123 -14.22464,2.94485 2.38337,-61.95554 -13.72223,-81.97206 -6.21439,-24.07342 -21.77309,-40.39385 -18.65277,-4.12169 4.10637,44.64244 17.48594,88.52644 6.25228,133.55132 -10.200805,55.82429 -50.637423,98.22495 -86.25228,139.69865 15.249038,-1.4248 35.311018,6.466 40.4375,-13.8437 25.256312,-38.5242 51.12439,-77.13074 63.28125,-122.15627 17.05143,-29.31137 25.12869,-62.04205 28.25232,-95.33618 -0.88635,-27.23158 1.86419,-55.34074 -2.03362,-80.88257 -9.65237,-38.51203 -3.71047,-83.36994 -20.78125,-118.84375 z m 603.9375,1.1875 c 12.87854,72.32788 27.20844,145.57616 20.77778,219.51894 -6.84703,57.89198 29.01657,113.34037 12.03472,171.19983 -2.5367,31.3607 29.28638,-38.25006 22.17486,-54.73983 -15.53737,-44.2205 12.30304,-87.78941 -4.5372,-132.04992 5.07454,-43.94483 6.23396,-86.73359 0.86224,-131.39777 2.61742,-35.92542 -38.27863,-43.90576 -51.3124,-72.53125 z m -68.375,28.3125 c -28.24301,46.61674 -24.66278,103.63442 -24.70418,155.87059 -4.34566,53.97647 -34.3278,107.60509 -15.92082,161.72316 19.43661,21.78371 -0.15004,74.83832 21.09375,83.96872 25.33427,2.8188 -16.29649,-97.3553 8.34375,-45.0312 23.53301,35.6754 12.73418,-59.31704 9.21066,-80.23702 8.74391,-45.96821 5.6564,-90.89489 6.1335,-136.73364 7.97593,-44.04301 -13.67865,-86.87733 -5.15671,-131.18561 l 1,-8.375 5e-5,0 z m -435.03125,5.65625 c 0.75178,32.02332 -34.89342,80.06476 -11.21875,103.28125 13.45239,-31.83802 24.72111,-69.4329 11.21875,-103.28125 z M 935.5,663.26843 c 16.14107,35.89662 26.55517,74.06474 25.9375,113.5625 -0.31907,29.50063 1.53188,73.16878 -13.31346,91.92156 1.17448,-18.54829 -3.15852,-45.25526 -9.359,-12.07989 -3.68105,17.53418 -20.9159,91.22152 -11.57754,33.84583 9.26058,-54.11485 23.7033,-108.06859 25.75217,-162.9116 -5.00763,-21.79836 -24.39974,-40.12329 -17.43967,-64.3384 z m 88.5,36.59375 c -11.7908,23.284 -25.66888,57.61602 -22.5,79.21875 12.3273,-21.37551 26.8121,-43.05653 22.5,-68.7875 0,-3.47708 0,-6.95417 0,-10.43125 z m -531,10.34375 c -23.70674,47.65117 -46.38564,101.93367 -36.53125,155.74995 15.29849,42.1905 14.74392,89.33252 25.09294,133.10411 -15.48429,23.82931 8.85838,83.59761 23.35574,36.62971 13.95792,-45.2898 4.14833,-90.96483 -9.26118,-134.85882 -4.09105,-43.6327 -6.78906,-86.52905 -7.0625,-130.40625 0.4349,-20.14508 4.43822,-40.0756 4.40625,-60.2187 z m -242.75,10 c -24.2043,32.83287 -39.45733,69.63375 -51.72646,108.2876 -6.69659,20.62095 -45.24373,65.01838 -30.50823,74.95951 32.3586,-31.66629 36.64788,-80.76715 65.95344,-115.18461 7.87088,-21.13669 20.50243,-44.62275 16.28125,-68.0625 z m 343.875,19.625 c -31.6462,60.09995 -47.22612,132.13396 -26.38636,198.30784 6.97302,37.702 6.79877,78.73573 20.86029,114.01043 47.72585,9.8649 21.62649,-65.11905 17.96357,-91.06827 -23.85111,-39.25836 0.31192,-82.69788 -13.375,-123.78125 -7.26846,-32.13081 -1.43845,-65.23557 0.9375,-97.46875 z M 1024,746.29968 c -16.8939,34.21393 -37.09,70.38218 -42,107.75 22.4745,-12.23378 42.0234,-43.10174 42,-69.7975 0,-12.65083 0,-25.30167 0,-37.9525 z m -620.46875,0.8125 c -17.24148,34.47012 -16.73837,74.13074 -30.40625,110.28125 6.25413,45.24909 -13.74268,98.15778 12.81216,138.08894 5.00218,19.49183 17.13097,89.30433 26.44143,37.22693 2.44612,-39.05221 -16.51929,-76.00105 -14.76858,-115.77191 -1.48295,-56.20576 -3.01226,-112.45376 6.82749,-168.04396 l -0.90625,-1.78125 z m -247.125,0.4375 c 12.88764,41.52065 -3.54917,87.97214 -8.24229,130.4046 -1.69816,15.80764 -19.67475,75.01964 -1.60146,28.50165 15.64195,-39.05008 40.18495,-78.0752 29.0625,-121.9375 -5.91947,-12.61064 -4.17245,-31.34312 -19.21875,-36.96875 z m 538.15625,43.03125 c -14.36118,41.96305 6.7745,87.62225 -3.1875,130.8125 7.28604,42.90993 39.36841,86.73197 14.4375,130.31247 36.26951,-0.5288 18.08058,-70.93656 19.28125,-96.34372 5.35193,-43.72549 -17.25166,-83.5018 -15.76669,-127.0264 -3.76046,-12.72421 -5.87078,-27.44401 -14.76456,-37.75485 z m -323.28125,15.46875 c -34.25424,34.59265 -31.88922,88.49162 -65.14435,123.96868 -26.03561,33.74849 -31.97333,78.36164 -54.8244,114.50004 -3.78878,18.9799 37.65525,6.5743 29.50859,-17.0681 10.95923,-40.27102 34.13151,-74.45379 59.2765,-106.5923 19.81879,-35.18314 30.07958,-74.90247 31.18366,-114.80832 z m -290.125,3.125 c 3.051303,0.59706 -5.059383,1.16936 0,0 z m 722.40625,24.9375 c 3.77882,30.09853 -33.99002,93.41886 -1.82973,100.65263 6.09087,-33.7952 21.43813,-67.98963 1.82973,-100.65263 z M 1024,881.58093 c -25.33975,24.43551 -12.3344,66.24025 -24.88491,96.98845 6.76231,20.60822 -23.91377,76.84362 9.34871,73.76152 14.0936,-11.0365 16.3744,-41.3918 15.536,-61.57122 0,-16.945 0,-33.89 0,-50.835 -10.7173,15.88123 -17.1249,65.57802 -18.9822,66.63522 -7.24504,-37.40998 18.0992,-69.66177 18.9822,-105.27647 10e-5,-6.56743 -3e-4,-13.1354 2e-4,-19.7025 z M 80.1875,893.23718 c -6.164792,34.29634 -30.817787,62.61259 -32.261752,97.55927 -16.513853,38.48265 27.032552,-21.08431 28.230502,-37.43427 10.719318,-17.50929 12.753837,-41.81797 4.03125,-60.125 z m 752.40625,4.9375 c -34.17486,46.00237 -40.15484,105.63822 -72.70973,152.46022 23.36299,12.7711 26.54975,-35.3603 41.33473,-49.5227 20.11564,-30.29883 36.50257,-65.92736 31.375,-102.93752 z m -479.8125,19.53125 c -33.36103,27.52183 -19.53724,89.30377 6.5858,102.17577 4.85997,-31.19329 -3.48705,-58.48932 -2.45508,-90.08729 -0.7506,-4.05408 -1.05492,-8.96549 -4.13072,-12.08848 z M 735,926.26843 c 5.93141,41.91903 5.15475,84.81697 -5.46875,126.06247 31.45986,4.1767 26.96642,-45.499 27.70126,-66.58845 C 755.77641,964.14432 745.50433,944.69609 735,926.26843 z m -573.0625,0.5625 c -20.30779,12.07187 -54.32757,74.24327 -39.71875,16.34375 -12.74635,22.00118 -27.386416,68.37152 -47.15625,95.75002 -16.089436,25.8781 45.3488,16.142 38.9375,-13.4688 16.31895,-32.43933 35.73197,-64.83829 47.9375,-98.62497 z m 828.1875,0.84375 c -21.47882,37.03632 -12.27794,83.03952 -29.375,122.87502 13.87304,6.0336 37.17631,2.7423 25.36785,-22.584 -0.72375,-33.63346 -2.15938,-67.55837 4.00715,-100.29102 z m -317.21875,3.8125 c -6.93294,41.09079 13.17885,80.03222 10.1875,120.84372 30.88759,8.5993 13.03389,-32.8043 17.65625,-50.25 -1.67427,-25.72124 -12.41746,-50.19429 -27.84375,-70.59372 z m -349.96875,37.1875 c -8.42565,17.8664 -40.57445,82.22002 -8.7525,83.65622 18.66427,-7.3921 12.77754,-65.06367 8.7525,-83.65622 z m -68,12.15625 c -16.38268,20.78827 -59.37898,53.53827 -54.78567,71.35677 31.82907,10.3892 47.24203,-14.0561 51.34817,-43.0755 2.22379,-9.12804 5.23201,-19.00063 3.4375,-28.28127 z m 703.96875,10.0625 c -12.33713,15.80647 -52.86092,70.32817 -9.01,61.43747 5.64078,-16.7454 9.47974,-41.9405 9.01,-61.43747 z m -104,8.34375 c -10.91732,11.96302 -47.18906,66.65992 -12.13504,50.67332 5.93545,-16.3495 11.48263,-33.6554 12.13504,-50.67332 z m -854.5625,3.71872 c -0.80828023,2.0681 1.0011674,5.2224 0,0 z m 335.0625,10.125 c -16.75295,26.0718 17.32386,54.7276 24.3125,33.5938 -9.13732,-10.6545 -17.95908,-20.9602 -24.3125,-33.5938 z m -39.15625,0.1875 c -6.99313,14.9686 -31.68314,53.1037 0.56063,35.627 0.17486,-11.8711 0.93844,-23.803 -0.56063,-35.627 z m -127.75,8.3438 c -20.94312,12.3091 -29.35302,44.8728 -4.08989,25.8343 2.99324,-8.25 5.02583,-17.0064 4.08989,-25.8343 z"
       id="path3039"
       inkscape:connector-curvature="0" />
  </g>
  <g
     transform="translate(0,-284.36218)"
     id="g3077"
     inkscape:groupmode="layer"
     inkscape:label="Layer 1 copy">
    <path
       style="fill:#000000"
       d="m 469.71875,284.36218 c 0.61878,44.41355 37.07942,90.73285 24.66316,129.57771 -10.31803,18.74984 -16.61873,65.39131 -1.63191,21.51604 32.13081,-38.69662 43.63342,-85.52833 34.96039,-133.57927 -6.25688,-33.52547 -39.91544,-12.75084 -19.89743,11.2329 10.77858,17.15682 16.96633,74.55248 -1.05781,30.72761 -10.60227,-20.62958 -18.45094,-44.39619 -37.0364,-59.47499 z M 386.5,284.39343 c -46.5477,-3.32412 -65.89337,55.99873 -78.4135,92.75802 -17.04548,48.41767 -30.15683,-29.46976 -13.73162,-47.65101 15.75638,-19.53659 -14.464,-70.18082 -20.49709,-30.45362 -1.25257,48.05983 -19.79228,96.44201 3.69087,142.46595 -1.61871,29.61239 18.23988,35.94311 25.30951,3.76994 17.63144,-48.54036 32.05742,-98.86001 69.0914,-136.89255 5.26844,-7.7336 10.23532,-15.68753 14.55043,-23.99673 z M 0,284.42468 c -5.339036,21.14676 5.9376988,44.40091 12.529991,11.41665 C 21.310508,283.65038 7.5109075,283.28304 0,284.42468 z m 41.6875,0 C 16.28715,315.63635 -11.554874,356.39402 1.7175267,392.49954 7.884986,371.83247 32.985581,296.22059 18.88156,358.26676 5.7690932,410.51685 28.550986,462.0275 23.265884,514.5007 33.932598,542.67282 -7.1428934,598.8185 5.9976306,606.60694 27.383205,565.81024 53.651047,528.69857 83.780864,493.92993 105.50018,454.58018 102.82239,405.87 126.30359,366.58936 c 3.56698,0.22758 -14.62759,56.45886 -7.56622,79.7103 11.26523,52.63851 -1.17943,106.80098 20.77268,158.07558 15.52635,31.82758 1.25503,74.80371 24.2735,101.38834 6.71426,-94.52121 -2.9943,-188.89382 -16.52102,-282.32152 -7.24967,-45.5279 -7.37163,-92.61376 -4.93722,-137.37376 -53.765526,-16.32831 -51.297651,63.80665 -48.861378,98.67297 5.509091,20.06148 -7.433176,55.23831 -7.28152,12.59377 -7.259235,-34.59006 5.783805,-88.91207 -13.496016,-111.82881 -41.803531,34.67761 4.000916,91.15413 1.504131,134.43005 0.99105,33.71694 -14.879903,90.03075 -39.311097,101.46725 14.245465,-48.5143 11.117016,-99.12913 2.457899,-148.34866 -7.053621,-28.97337 2.627758,-68.28724 4.350171,-88.63019 z m 126.9375,0 c -10.74266,59.1064 -3.70849,127.33256 16.27425,181.86844 29.58453,15.7425 12.47159,-47.12578 21.74249,-66.17029 3.52304,-41.10153 -39.07949,-71.34465 -5.56707,-110.26315 -1.05809,-14.46194 -22.76098,-2.7042 -32.44967,-5.435 z m 56.125,0 c -37.80881,3.68714 -11.62178,101.52369 -9.17517,32.99584 1.53897,-11.04832 12.32925,-21.7047 9.17517,-32.99584 z m 25.78125,0 c -15.37582,19.84924 -25.93785,75.60596 6.46875,80.625 -3.86799,-26.57066 4.00251,-55.42904 -6.46875,-80.625 z m 62.34375,0 c -23.77158,22.95943 24.61441,5.54425 0,0 z m 17.34375,0 c -11.64734,12.96024 -19.92819,67.7439 0.78158,26.18162 2.14345,-9.17696 26.27072,-32.27149 -0.78158,-26.18162 z m 85.9375,0 c -6.67907,41.25173 -52.48342,65.29053 -49.00454,110.52263 1.54961,20.96593 -46.51005,82.18584 -20.52159,36.03478 12.15948,-22.86344 27.38023,-86.58119 15.4229,-90.66622 -18.7787,43.0701 -28.72491,89.6074 -59.45241,126.68271 -20.36553,28.6295 7.27703,29.99573 25.11443,27.05529 36.88269,30.88694 27.5755,83.09625 17.84483,123.88417 8.60665,55.67661 -31.69322,93.85423 -53.17766,140.01693 -21.25378,48.29182 -11.11924,104.66243 -41.11106,150.36669 -17.40265,42.14509 -47.76984,78.43338 -61.82474,121.60134 21.65422,-0.7735 51.91858,-60.6197 67.83912,-90.28007 26.16411,-49.37033 38.29003,-103.66515 52.93936,-157.02685 18.14005,-46.91631 1.13501,32.52773 0.39457,46.4508 0.45228,26.77944 -19.60858,69.84142 -9.44973,86.90039 23.321,-46.42921 34.29726,-102.35786 75.75613,-136.81724 29.02831,-77.57208 98.1,-132.95014 120.57226,-213.5564 -32.87538,36.1986 -61.50261,75.82522 -89.14075,115.5716 -10.35584,17.43364 -52.451,61.75674 -31.03606,14.52306 19.1723,-49.12408 42.24056,-98.92597 44.66281,-151.80598 -7.06291,-52.01555 -4.61722,-103.89848 1.66747,-155.77162 3.58705,-34.43163 18.89869,-72.99039 17.10277,-104.24632 -8.09745,-2.63372 -16.51434,-0.65958 -24.59811,0.56031 z m 119.03125,0 c 0.56426,39.1201 17.71185,86.02051 -6.29568,119.8866 -17.35217,17.39392 -37.94282,97.84243 1.89529,57.12298 37.97445,-29.86748 38.19918,-82.78981 18.29418,-120.38633 8.35328,23.19617 35.67953,44.44786 26.8665,1.96361 -0.36536,-25.39784 -4.69025,-67.02344 -40.76029,-58.58686 z m 90.625,0 c -11.04461,3.56003 -14.42882,25.94765 -15.59375,0.15625 -19.56474,-6.857 -45.06361,5.02197 -17.56378,19.75999 10.57286,23.84402 -4.95461,54.93374 1.66616,75.90243 -17.63661,-18.57137 -3.9224,61.78371 -24.43274,77.99461 -8.3657,16.12309 -19.51735,54.75543 1.501,19.39002 30.07238,-51.66523 41.60585,-111.21226 52.57317,-169.00882 1.17043,-5.70619 17.52978,-25.9089 1.84994,-24.19448 z m 19.375,0 c -13.16854,15.15723 -16.36932,69.83616 0.38019,27.1006 0.81678,-9.18142 26.53941,-34.09555 -0.38019,-27.1006 z m 49.8125,0 c -47.30152,24.39298 -64.00412,77.01242 -78.8457,124.01769 -12.03908,57.07108 -55.98459,94.10733 -85.89201,140.46031 -42.28217,49.71251 -72.32523,107.54295 -98.81768,166.76221 -14.85343,47.94768 -25.96362,99.11046 -27.38176,149.74321 1.70671,56.91344 11.3238,113.20376 22.1559,168.9853 -6.52955,31.6499 56.57331,21.7311 31.22527,-9.4106 -1.45909,-50.39472 -17.5566,-98.4156 -14.65018,-148.45789 -0.98769,-21.10026 -4.11156,-56.73579 -10.72507,-16.68348 -8.81807,19.94068 4.60474,100.5782 -12.28763,48.17662 -12.0794,-14.15823 8.52567,-73.4565 21.33739,-101.64023 27.5816,-54.24834 44.00892,-114.71122 85.16593,-161.07996 39.25237,-47.81042 41.29544,-112.56824 68.18434,-166.27943 -16.18929,50.58032 -12.29773,102.99391 -7.94598,154.18126 3.56203,47.13854 -7.21003,92.70431 -26.18111,135.5204 -4.07673,19.62073 -31.74182,78.01152 -20.74815,27.21331 18.28431,-50.29497 18.82307,-102.5233 18.79618,-155.06306 -3.17804,-53.21143 -25.727,30.02428 -25.03176,46.18119 -3.73269,51.49258 6.9705,102.1769 -13.43095,151.75245 -17.91605,58.92927 6.59354,116.49723 15.86764,174.00822 -6.48493,24.5813 -10.99231,57.3337 23.00436,35.2834 1.55594,-49.53968 -16.57043,-100.47343 -14.77519,-151.33598 -5.22215,-61.71175 17.61314,-120.30003 49.1077,-172.23489 28.22275,-42.88563 76.36277,-74.67605 78.31106,-131.24228 4.60129,-20.54972 17.1073,-72.04062 25.32083,-74.98918 -20.22274,53.98866 -3.8885,109.36951 -5.23631,163.88308 -3.44686,55.20804 29.2483,103.13334 31.69387,157.26892 -0.40075,24.53418 21.14461,68.57522 15.41666,17.81705 0.84686,-117.37479 -19.10617,-233.4705 -30.84705,-349.78443 -12.87846,-59.96221 39.89361,-92.98596 77.36926,-128.27085 13.19725,-25.73202 61.38175,-72.87509 44.40651,-94.30564 -42.13778,29.16089 -81.06375,69.06306 -106.97029,114.3866 -10.76918,22.30103 -30.77615,52.32541 -14.86682,7.96932 5.8254,-39.31079 26.59824,-93.26699 26.44157,-122.54919 -13.0484,-0.67607 -26.11475,-0.0906 -39.17083,-0.28345 z m 53.75,0 c -1.95474,16.78034 -31.02836,95.20868 -0.63961,49.14573 10.21472,-20.33533 54.67665,-58.41514 0.63961,-49.14573 z m 110.0625,0 c -30.34559,45.2687 -35.34989,103.14839 -64.75451,147.57903 -12.14354,12.5967 -34.08301,74.98959 -13.03153,65.02794 7.42944,-63.83475 64.26272,-105.01666 85.22471,-163.4471 9.46999,-19.37667 37.3863,-58.63694 -7.43867,-49.15987 z m 48.1875,0 c -12.90334,33.05404 -48.82381,77.53673 -39.12532,107.14982 11.09109,-40.30068 33.50952,-74.67692 60.54918,-105.18609 -4.68177,-6.24596 -14.83472,-0.72298 -21.42386,-1.96373 z m 58.75,0 c -38.0889,50.21042 44.2807,-5.92879 0,0 z m 30.84375,0 c -48.10778,43.76187 -61.75028,110.84888 -96.19239,164.17909 -15.48771,18.2521 -21.31987,69.84056 -0.66762,26.52059 25.60484,-46.47483 54.19048,-91.30376 88.39471,-131.80211 8.72939,-13.38527 55.55185,-68.3747 8.4653,-58.89757 z m -865.1875,0.75 c 1.65399,6.14441 -5.69804,7.09545 0,0 z m 328.375,5.84375 c -22.72084,39.84744 10.10998,124.80224 -1.18196,139.83099 2.15155,-40.60977 -23.7915,-34.51231 -20.97586,1.01879 -0.44243,27.86381 -9.18939,85.00741 -1.35813,94.52706 20.65252,-38.55454 31.71188,-83.4996 45.91361,-123.88151 -18.3217,-34.39296 -9.88956,-71.33063 -20.02481,-106.81755 l -2.37285,-4.67778 0,0 z m 479.09375,1.46875 c -44.62123,41.26582 -75.66609,104.90973 -60.76225,166.00232 26.97594,-27.87951 44.37083,-72.23558 64.66114,-107.57411 -3.57106,-33.85812 -43.97007,44.14405 -49.44949,60.7661 -24.86666,40.88108 -1.9428,-41.81432 15.76671,-51.43102 14.45136,-19.99432 30.35958,-41.861 29.78389,-67.76329 z m -217.65625,3.46875 c -30.37413,40.22204 -59.14624,81.58976 -78.73304,128.1887 -27.50306,39.97019 -16.88776,86.51945 -3.48358,128.80244 7.67172,49.93392 -6.9899,104.94071 -45.15833,139.44636 22.36004,-57.91528 18.85805,-121.27828 8.51014,-181.23775 -7.0256,-58.23002 30.17151,-104.9633 62.23173,-148.72348 16.34846,-24.11143 33.84046,-47.99952 56.63308,-66.47627 z M 1024,308.92468 c -16.0071,14.27455 -33.2073,84.0902 0,40.40014 0,-13.46671 0,-26.93343 0,-40.40014 z M 5.5,323.39343 c -8.5216326,3.30532 -4.0262278,12.04455 0,0 z m 699.15625,7.6875 c -21.18622,44.6409 -10.4622,98.07232 -39.03501,140.69744 -10.53637,28.73903 -1.31163,114.4388 -8.93073,105.04173 -5.12992,-49.4211 -9.72943,-100.40108 -2.43227,-149.63308 8.63529,-35.57086 27.86481,-67.64057 50.39801,-96.10609 z M 408.625,352.01843 c -26.58696,42.64014 0.76733,90.72242 0.30876,135.22373 0.10097,21.70278 -12.37806,34.98212 -9.34078,4.33225 5.56186,-46.03079 -34.05635,-102.52313 9.03202,-139.55598 z m -180.53125,4.96875 c -5.9342,47.81612 -15.40838,96.01179 -2.4819,143.67225 7.76125,52.54972 -4.87599,108.59848 22.07581,157.0333 26.38798,51.32251 15.40677,113.69407 -19.51654,158.10048 -42.63767,67.82831 -61.77197,147.29988 -101.29543,216.81799 -16.29521,44.9531 31.17314,-11.9587 40.00135,-23.9754 43.77566,-38.39497 68.29899,-91.08259 89.61702,-143.95749 10.30375,-18.61372 13.9908,-70.95179 -3.19657,-26.43148 -25.42084,41.92803 -42.55895,88.30045 -72.7952,126.86644 -28.98067,45.54583 6.05403,-33.16365 14.01356,-47.53801 28.34524,-55.06691 52.19938,-111.86494 80.17898,-166.98348 13.79883,-49.07996 4.73556,-104.1966 -7.63952,-153.04755 -21.93472,-30.74847 -29.66564,-68.63628 -23.50909,-105.81533 5.95714,-35.12403 1.39268,-70.21273 -8.88958,-103.88893 -1.78503,-10.35911 -3.37466,-20.80592 -6.56289,-30.85279 z M 1024,379.42468 c -16.7074,42.61187 -41.71187,82.74455 -64.55473,121.33028 -29.53942,38.2693 -17.51688,96.74763 -53.85196,129.45136 19.46423,-37.99518 31.12187,-82.02467 28.81294,-125.40664 -24.38246,47.84667 -31.29348,103.53033 -64.16603,147.16931 4.45193,28.71503 54.37516,8.74136 52.21303,48.60866 17.46742,49.03922 6.00936,102.08565 -2.57967,151.42337 -15.94881,47.00623 -57.58579,84.43047 -53.63906,137.62161 3.37533,20.98867 -25.30285,83.63737 14.62614,55.01187 6.45246,-38.6457 9.26908,-79.64281 28.37993,-114.7463 -8.41603,37.6321 -14.35818,93.3398 -8.7026,121.9964 32.77987,-15.6061 25.31671,-67.93196 59.51628,-86.2319 13.31736,-47.86989 53.49553,-83.74881 64.21713,-129.80283 5.2135,-51.97805 -22.7846,23.88815 -40.89522,35.38761 -12.18977,14.15089 -37.42664,50.38382 -25.91025,10.23287 14.47798,-49.37059 44.71137,-96.44765 40.29532,-149.42274 -15.54605,-64.5922 -13.67257,-131.86099 -0.32703,-196.76288 0.17504,-39.69682 19.50888,-75.22331 26.56578,-113.41866 0,-14.14713 0,-28.29426 0,-42.44139 z m -43.59375,10.9375 c -43.05708,29.49009 -61.9113,82.62815 -92.81625,122.53748 -8.31104,17.52482 -14.811,74.95064 -29.04718,30.79996 -7.23584,-43.91499 24.01105,-96.04807 -8.74536,-133.98421 -28.52754,-0.0296 4.77195,58.90841 -9.22937,81.07892 -11.90876,44.47401 -0.69906,88.11242 12.18521,130.89844 18.40521,44.90651 34.08113,-40.77431 39.10008,-60.16079 14.18549,-63.84178 83.97802,-102.94785 88.55287,-171.1698 z m -198.84375,9.40625 c -50.75526,23.64205 -61.80439,88.61161 -44.88704,137.19114 5.5072,33.54399 -4.72648,90.44573 33.62752,103.84464 5.60909,-40.13864 11.73325,-83.22508 -3.04364,-122.76471 -25.5174,-34.51519 6.16602,-66.37757 14.27965,-91.76338 -24.84819,12.08583 6.14648,-19.58907 0.0235,-26.50769 z m 48.6875,31.46875 c -28.58031,17.23732 -35.21432,101.47341 -3.96497,91.01537 -0.0556,-30.24462 -10.20507,-62.33754 3.96497,-91.01537 z m -130.46875,8.15625 c 2.789,7.47763 -6.34098,9.94935 0,0 z m -435.625,10.375 c -23.23987,55.22035 13.36587,107.07745 34.61553,155.23574 10.00833,34.20132 9.76709,70.48264 5.48917,105.58021 24.74565,-49.07441 19.82657,-106.4108 -2.20393,-154.70559 20.28948,9.36428 30.44624,97.07395 36.99859,37.37262 12.99336,-49.07788 -26.18542,-81.80097 -62.2989,-105.42428 -10.54111,-10.5078 -7.55432,-25.43564 -12.60046,-38.0587 z m -104.96875,8.34375 c 10.72091,62.2585 29.10731,124.57139 18.46005,188.34342 -10.42199,48.229 6.48332,94.8249 8.16633,142.54519 1.73715,19.49816 -12.90404,78.53715 8.36233,33.29339 11.86556,-48.40252 4.28378,-99.50527 11.97246,-148.82878 -5.05071,-54.35773 17.84604,-107.90129 -1.96067,-161.2598 -5.27294,-26.97644 -29.68585,-35.66842 -45.0005,-54.09342 z m 333.71875,3.5625 c -29.36581,34.46751 -70.42565,91.82454 -66.54702,128.84591 17.31089,-32.55883 44.54295,-58.38574 59.70895,-92.08372 4.71713,-11.62406 7.35292,-24.18587 6.83807,-36.76219 z m 55.15625,7.3125 c -47.15351,19.30008 -68.7153,71.27199 -105.4817,103.73616 -17.59559,24.37819 -45.74046,81.60553 -35.95066,95.26842 33.33863,-35.07583 57.89732,-77.79969 87.63791,-115.50881 20.09601,-25.13275 53.06173,-50.33935 53.79445,-83.49577 z M 1024,474.42468 c -8.6404,12.62903 -2.0499,104.14733 0,67.81819 0,-22.60606 0,-45.21213 0,-67.81819 z m -660.40625,10.84375 c 27.9139,53.97961 17.88869,116.22476 15.10708,174.24332 -3.74934,22.13143 -15.33898,46.01281 -11.97956,9.174 -11.51474,-14.62651 -28.4245,96.53232 -21.92219,39.47848 10.74918,-58.08687 34.79046,-119.59511 27.16172,-177.50088 -6.34538,-13.9946 -15.17386,-29.74355 -8.36705,-45.39492 z M 95.6875,486.23718 C 62.568408,551.50944 82.919182,628.60094 54.77027,695.3567 33.208077,745.55794 50.814394,796.70556 60.139903,846.83969 64.551684,893.42302 40.205399,936.20126 8.2703099,968.02839 -7.0688168,989.63051 5.6405903,1033.4263 4.8749684,1048.0082 2.4274034,997.99354 49.699465,967.75843 61.742122,922.54093 c 25.303461,-29.48404 3.336796,-96.96344 11.650624,-110.20426 -0.471054,24.78889 15.312129,35.8715 14.203426,5.85358 0.846045,-46.41246 -3.933321,-93.04106 7.602494,-138.77616 2.096747,-49.55356 9.854754,-99.00774 -0.284155,-148.85133 -2.492222,-14.86813 0.603193,-29.49593 0.772989,-44.32558 z m 700.34375,31.25 c -2.35395,49.98879 -11.18109,100.63924 3.45591,149.71909 10.03596,55.35187 -6.3323,116.02864 26.34613,165.9099 33.38389,55.01295 21.49241,126.56073 -16.7701,175.95673 -11.80457,12.1339 -39.71684,53.9322 -3.31585,40.0944 22.63153,-49.95191 54.80677,-101.0148 57.71361,-156.46809 1.66664,-55.21556 -10.15337,-109.28388 -39.25259,-155.89832 -16.35891,-56.20842 6.46624,-116.1786 -15.48366,-171.5527 -4.92771,-15.70203 -8.26041,-32.10457 -12.69345,-47.76101 z m 178.6875,11.4375 c -21.55659,41.69318 -2.3073,88.00244 4.21175,130.40595 3.73458,26.01086 -7.2428,46.65246 -8.0711,7.48346 0.48922,-44.39383 -35.42171,-103.27795 3.85935,-137.88941 z M 33.6875,574.48718 C 7.8263367,615.85524 -6.7822762,663.88613 -0.10668839,712.69819 -1.7620736,770.19064 3.6483948,827.90593 18.38663,883.48756 21.725457,903.76263 7.4555069,987.8483 30.735888,926.1 50.654479,870.8746 42.926847,810.80526 27.699274,755.61969 26.290926,709.92209 29.24065,665.57403 28.212403,619.45654 29.395812,604.3968 31.382666,589.41236 33.6875,574.48718 z m 983.7813,0.875 c -20.98879,40.80653 -13.2666,90.58296 -11.922,134.13373 27.8337,-32.96697 20.3608,-91.80505 13.297,-133.47753 l -1.375,-0.65625 0,5e-5 z m -504.43755,30.1875 c -13.68571,51.93791 -37.7309,100.57819 -70.68509,142.80503 -10.13384,13.48501 -23.53347,72.73194 -26.12543,59.44335 7.53468,-63.84568 51.36907,-113.74351 76.06034,-171.14354 6.05985,-10.90349 12.81585,-21.46021 20.75018,-31.10484 z M 837,617.83093 c -19.25345,56.7489 13.25271,109.85581 38.86799,157.67755 15.41644,29.15015 16.73623,115.16943 14.13333,105.01676 17.87213,-45.10067 16.22913,-96.22235 -6.53235,-139.23296 -0.37203,-23.31775 26.46387,43.65794 32.19587,57.97051 C 932.83422,743.82998 900.14169,688.5273 851.96875,661.36218 844.56102,647.80331 840.7473,632.70683 837,617.83093 z m -711.25,3.4375 c -12.69149,46.15667 -9.79851,99.49061 -3.66345,144.77695 10.18861,28.30672 23.62109,78.99543 2.86918,97.27355 -5.33096,-31.84138 5.02621,-91.5644 -27.637718,-102.28163 -2.08658,55.42827 21.769198,112.09975 1.890745,166.95189 -14.368654,48.82733 -50.263791,86.63421 -82.614957,124.34171 53.467097,9.8145 62.957575,-62.41764 88.74184,-95.47572 19.13573,-50.42204 47.58701,-100.32434 43.08568,-156.39483 2.27546,-50.79013 -8.84159,-100.70182 -13.57988,-151.07282 -1.96574,-9.66866 -4.8006,-19.21117 -9.09144,-28.1191 z m 603.9375,1.1875 c 15.32866,79.35085 27.67464,160.18085 20.02557,241.12337 2.09627,49.9982 27.5959,99.42602 12.78693,149.5954 11.04212,14.7805 32.66932,-53.49802 18.20969,-71.2946 4.41698,-52.66169 1.67553,-104.24551 2.95851,-156.44725 -3.36658,-42.35699 12.85889,-97.5694 -22.4553,-129.44877 -11.51465,-10.06356 -24.96909,-19.16274 -31.5254,-33.52815 z m -68.375,28.3125 c -40.65094,65.93586 -12.08705,146.14509 -36.50474,216.49152 -11.90762,40.16768 -15.01747,84.3786 4.38805,122.12838 -2.3427,15.50467 4.53671,87.00337 21.11201,49.73757 0.90231,-18.1541 -17.977,-68.62081 3.83745,-26.6183 27.22397,-21.63231 -5.7627,-89.8503 10.39142,-128.2946 -0.71813,-53.16525 6.3062,-106.67814 -1.85064,-159.37729 -4.57278,-24.61824 -5.97029,-49.35251 -1.37355,-74.06728 z m -435.03125,5.65625 c 0.0313,28.2962 -35.89232,91.84343 -8.72753,97.24648 12.2284,-30.3848 21.40851,-65.4452 8.72753,-97.24648 z M 935.5,663.26843 c 28.1905,59.49691 32.70572,128.76732 19.33797,192.56545 -9.49189,39.20014 -6.17094,-45.98106 -16.07293,0.83872 -3.26421,19.67055 -20.30217,83.34943 -10.69471,28.773 9.26113,-52.42754 22.84376,-104.40355 24.86934,-157.83877 -5.02959,-21.62308 -24.50604,-40.7363 -17.43967,-64.3384 z m 88.5,36.59375 c -11.1049,18.19979 -31.31112,76.79432 -17.8171,71.1813 15.1021,-21.76617 20.5846,-45.12154 17.8171,-71.1813 z m -531,10.34375 c -27.57552,54.62418 -53.01504,119.34183 -29.42148,179.94948 8.95665,47.98522 17.71562,95.97778 14.74591,143.35039 27.30826,55.3878 40.91739,-51.74319 31.17582,-74.22276 -13.3393,-51.1005 -19.96659,-103.15047 -20.26293,-156.10759 -2.78875,-31.17778 2.54476,-61.92126 3.76268,-92.96952 z m -242.75,10 c -37.35168,46.05979 -44.03147,107.53371 -78.10822,155.29035 -15.51827,21.27667 -1.29072,38.50614 11.46474,8.51738 20.32133,-49.92548 54.89231,-93.51459 66.98719,-146.25667 l 0.49147,-8.76366 -0.83518,-8.7874 z m 343.875,19.625 c -33.50905,62.14097 -46.79316,137.14194 -25.15746,205.41379 11.88627,31.419 -5.02764,110.62528 39.32547,104.38708 25.39301,-42.0065 -12.64831,-90.22862 -12.83503,-134.13571 8.83157,-44.99702 -9.05839,-88.19376 -5.04869,-133.01318 0.97188,-14.24003 2.66411,-28.4185 3.71571,-42.65198 z M 1024,746.29968 c -16.9559,34.55769 -36.65223,69.03128 -42,107.75 35.0546,-19.2659 45.5823,-60.8692 42,-98.05222 0,-3.2326 0,-6.46519 0,-9.69778 z m -620.46875,0.8125 c -15.68396,43.54333 -28.60246,90.53716 -29.17706,136.40568 -10.59717,53.20459 5.77754,102.40636 21.40777,152.02164 18.8101,44.0567 20.36945,-39.34812 11.06004,-53.29088 -14.77162,-62.55467 -10.63656,-127.81513 -7.81098,-191.55014 0.39267,-14.47837 4.88529,-29.63935 4.52023,-43.5863 z m -247.125,0.4375 c 13.06182,52.75661 -6.46781,106.49673 -14.26068,158.6349 -8.79479,40.76767 16.35779,-31.41466 23.41907,-43.90586 15.71696,-34.73175 20.8401,-87.38857 -9.15839,-114.72904 z m 538.15625,43.03125 c -9.06811,50.74375 -1.41119,104.90127 2.98686,155.03793 18.31964,31.0025 17.16674,85.51474 14.44352,105.19704 34.74383,-30.5172 5.64918,-86.76037 12.68635,-127.62764 -13.74397,-43.39887 -8.04059,-92.77425 -30.11673,-132.60733 z m -323.28125,15.46875 c -35.66797,42.48098 -39.15498,102.87109 -77.91365,143.97061 -11.18093,33.42846 -38.27039,72.36021 -37.89715,103.16311 42.07833,-7.9066 27.92892,-74.77424 61.94416,-101.47323 34.82357,-40.61921 52.63525,-92.3622 53.86664,-145.66049 z m -290.125,3.125 c 2.722224,1.17164 -5.678045,0.56882 0,0 z m 722.40625,24.9375 c 3.00767,26.29044 -32.89773,98.56289 -0.59001,94.31182 6.63732,-30.64131 18.84727,-65.12913 0.59001,-94.31182 z M 1024,881.58093 c -25.97587,32.72898 -16.4921,79.42925 -25.24886,117.6412 -15.50412,22.34077 1.39026,81.64497 21.04286,34.09797 7.3224,-30.5554 3.0905,-62.26045 4.2058,-93.39542 -11.9282,17.52849 -21.6614,97.14842 -19.1969,39.41175 6.1944,-32.79004 23.638,-63.30082 19.1971,-97.7555 z M 80.1875,893.23718 C 71.011737,930.78733 48.024592,964.13102 44.296129,1003.033 70.68147,978.33708 96.002372,930.56654 80.1875,893.23718 z m 752.40625,4.9375 c -34.09289,45.85178 -40.20662,105.72242 -72.70973,152.46022 34.40017,-6.9142 42.74487,-63.24297 64.10603,-92.01972 7.55487,-19.07318 11.50514,-39.9657 8.6037,-60.4405 z m -479.8125,19.53125 c -33.78896,20.43564 -19.1305,98.75757 7.34779,96.37067 0.61775,-31.81348 -0.50949,-65.86422 -7.34779,-96.37067 z M 735,926.26843 c 14.48839,38.56997 -11.53777,105.55767 4.72382,125.26537 32.33726,-30.09 16.90324,-92.17279 -4.72382,-125.26537 z m -573.0625,0.5625 c -19.25178,19.35808 -51.75701,57.46946 -42.13167,20.74396 -11.07083,35.29445 -40.613903,71.21401 -44.545487,104.32661 50.598097,3.8119 49.062817,-67.61155 76.332567,-99.96844 3.76232,-8.23281 7.26823,-16.58738 10.34459,-25.10213 z m 828.1875,0.84375 c -17.23908,37.02433 -22.20315,92.68012 -23.81756,124.67572 44.91306,-1.2119 6.42164,-69.34183 20.48816,-99.92587 0.71991,-8.29577 1.78726,-16.56533 3.3294,-24.74985 z m -317.21875,3.8125 c -0.85286,38.64643 2.92176,97.10652 19.62469,121.86902 21.83551,-30.0743 3.5204,-92.97506 -19.62469,-121.86902 z m -349.96875,37.1875 c -10.30933,19.28724 -42.7437,87.98252 -2.85264,78.70182 11.72475,-24.0943 6.62444,-53.25364 2.85264,-78.70182 z m -68,12.15625 c -13.5832,19.29407 -84.60182,70.53047 -33.91206,73.08997 29.39436,-8.6004 32.5994,-47.8732 33.91206,-73.08997 z m 703.96875,10.0625 c -19.09398,12.17367 -45.34352,80.44047 -6.98406,54.78947 4.73936,-17.8301 7.23632,-36.33 6.98406,-54.78947 z m -104,8.34375 c -15.47323,9.08972 -41.1264,73.25992 -9.93625,44.49982 4.97846,-14.3716 9.31643,-29.206 9.93625,-44.49982 z m -854.5625,3.71872 0.0723327,2.7339 -0.0723327,-2.7339 z m 335.0625,10.125 c -27.57644,27.6516 42.24986,58.4204 14.27967,21.6135 -5.39855,-6.75 -10.39693,-13.8716 -14.27967,-21.6135 z m -39.15625,0.1875 c -19.10895,13.7369 -14.74828,61.731 0.75761,26.7149 0.21823,-8.9053 0.36665,-17.8544 -0.75761,-26.7149 z m -127.75,8.3438 c -23.64683,5.2625 -22.52224,52.1915 -2.05645,19.5586 1.78805,-6.3297 2.76097,-12.9784 2.05645,-19.5586 z"
       id="path3079"
       inkscape:connector-curvature="0" />
  </g>
  <g
     inkscape:label="Layer 1 copy copy"
     inkscape:groupmode="layer"
     id="g3082"
     transform="translate(0,-284.36218)">
    <path
       style="fill:#000000"
       d="m 469.71875,284.36218 c 3.24976,52.68981 46.25123,103.91284 15.66092,156.19387 -10.57271,47.62468 36.57106,-69.54156 27.60772,-35.53985 14.75391,-31.97087 36.58313,-106.70523 -5.0788,-119.08904 -19.36397,15.63564 27.4062,66.0584 4.509,69.87591 -13.02997,-24.3301 -20.87763,-53.0432 -42.69884,-71.44089 z M 386.5,284.39343 c -57.86495,-0.16036 -64.20365,70.12197 -87.41789,107.89787 -37.27265,-25.44694 20.21726,-77.18602 -11.93314,-106.21826 -27.72823,17.805 -16.53961,84.98048 -20.26011,120.52149 2.77071,21.75883 19.0402,90.55318 35.96931,38.68818 16.59559,-56.55051 42.86751,-109.38444 80.28876,-154.72188 L 386.5,284.39343 z M 0,284.42468 c -10.154376,31.33276 16.973318,32.39899 14.404464,2.14598 C 10.700382,282.93034 4.5368686,284.16086 0,284.42468 z m 41.6875,0 C 17.030518,309.0566 -13.08737,367.64498 3.0816042,388.0276 7.4303153,370.04816 30.308803,308.47319 18.88156,358.26676 4.9825641,420.76847 34.690008,484.615 21.340667,546.77801 c -9.200189,17.31757 -29.7716303,88.52821 -2.80545,37.2606 23.18715,-48.73352 73.567989,-81.88305 82.053393,-137.3352 6.08608,-24.80104 12.67251,-63.89751 26.12436,-77.57733 -17.6402,51.68993 -1.19169,104.02581 -1.59684,156.72284 -2.64005,50.38957 27.39571,94.23251 24.96546,144.54409 1.27628,24.55612 19.98452,49.33394 15.16771,8.79105 6.00872,-106.12094 -14.59371,-210.89873 -23.7919,-316.06675 -2.83738,-29.34017 14.37613,-107.20683 -34.77971,-68.42139 -27.971794,34.53865 -1.84775,90.2915 -18.646804,121.48315 -11.151721,-42.67306 6.812462,-91.10194 -15.34449,-130.67284 -45.286292,44.18788 14.612649,103.1937 0.337906,155.33432 1.699135,22.54044 -27.826051,89.04452 -35.674556,71.44279 15.935333,-55.63034 1.706615,-112.67209 -2.475955,-168.52593 0.520846,-19.95524 4.684698,-39.54122 6.813709,-59.33273 z m 126.9375,0 c -10.45739,60.63179 -4.34275,123.97459 16.27425,181.86844 33.65308,0.7875 14.35467,-64.26432 19.66518,-88.27344 -17.33344,-30.24679 -17.37678,-68.66332 -7.64393,-94.72633 -9.57613,-2.6114 -18.69707,2.88675 -28.2955,1.13133 z m 56.125,0 c -37.25058,-0.16043 -11.89512,94.4022 -9.17517,32.99584 1.61013,-11.45046 12.09483,-20.77605 9.17517,-32.99584 z m 25.78125,0 c -15.17595,22.4472 -27.04103,69.41153 6.46875,80.625 -3.91265,-26.71213 4.06728,-54.87086 -6.46875,-80.625 z m 62.34375,0 c -25.13443,22.11595 24.46874,6.70313 0,0 z m 17.34375,0 c -13.19083,10.72342 -16.77171,63.87991 0.78158,26.18162 2.22545,-8.31596 25.80112,-33.1059 -0.78158,-26.18162 z m 85.9375,0 c -15.31201,45.66974 -54.89013,80.63826 -55.21192,131.48806 -7.32033,19.14794 -33.48528,46.55508 -12.00582,10.32823 9.54135,-19.25718 27.13496,-85.64076 9.68978,-77.81198 -11.89272,50.37092 -46.6156,94.85087 -61.73423,140.48669 56.39012,-0.82496 66.29547,67.7498 52.20557,113.25547 3.16154,58.02073 -27.61642,107.56621 -56.71742,155.78382 -20.6204,57.08819 -15.75946,121.89544 -52.07442,173.53955 -11.47704,27.94245 -57.22523,82.89128 -42.38228,95.54368 36.62161,-33.08782 56.38791,-81.01105 76.60972,-125.25483 17.76392,-42.41202 24.57264,-88.50156 40.94516,-131.21253 3.40506,25.58135 -6.9779,76.92735 -14.53981,111.61612 -5.7764,15.67574 -0.97644,50.33575 8.47951,15.98456 15.12136,-58.96791 57.11063,-102.096 83.71514,-153.93877 33.20009,-60.42668 85.46673,-110.80462 104.36289,-178.63912 -41.1496,42.98141 -71.12267,94.95833 -109.15818,140.28225 -37.18967,32.01347 4.54301,-42.53363 7.34783,-56.51324 29.03709,-57.71146 26.05043,-121.17531 22.12474,-183.41954 -1.44419,-57.8137 13.904,-113.58121 22.86972,-170.03776 6.05171,-20.15216 -13.19265,-12.13543 -24.52598,-11.48066 z m 119.03125,0 c 3.11271,45.4 18.18148,97.18638 -15.97815,135.10661 -17.5532,22.10492 -14.61399,79.46248 18.25989,36.04201 30.45638,-29.42681 30.84295,-78.90434 11.61205,-114.52537 3.22851,25.44967 39.31488,36.10344 26.8665,1.96361 0.24128,-24.40779 -5.61337,-67.7885 -40.76029,-58.58686 z m 90.625,0 c -17.6632,28.94376 -16.05013,-17.03409 -42.02485,1.93811 12.05678,20.57225 15.12273,72.1132 7.578,91.51791 -13.20572,30.68312 -10.65467,76.80163 -31.74578,109.36046 16.98653,-3.93405 33.35038,-55.78636 42.09917,-81.14306 13.18664,-39.04959 15.71094,-81.60032 30.58393,-119.41874 l -2.02012,-1.94134 -4.47035,-0.31334 0,0 z m 19.375,0 c -18.69534,22.14588 -8.84214,64.42424 4.45093,18.00905 5.50042,-7.53074 15.41778,-25.0297 -4.45093,-18.00905 z m 49.8125,0 c -59.61996,30.91705 -68.4933,102.55738 -90.84574,158.90173 -39.94787,71.08911 -101.30327,128.00162 -138.08147,201.3038 -50.42304,86.66656 -71.85761,190.48522 -56.46223,289.84029 5.05338,37.92337 11.53549,76.7303 19.23731,113.4759 55.71241,22.0391 21.69251,-50.42559 22.5532,-78.88798 -13.32153,-32.53069 -0.76389,-112.72211 -17.01317,-120.86496 -10.87461,20.46919 0.2743,66.17787 -9.5905,73.61737 -21.31302,-41.34264 5.57486,-86.98914 21.37073,-125.67244 25.67515,-57.17408 47.73285,-117.32103 90.22609,-164.711 29.89768,-46.4089 33.63751,-103.56278 58.07458,-152.40896 -29.52812,83.67789 11.1322,174.01979 -21.53196,257.09242 -10.47156,19.65998 -20.94883,77.0767 -35.77535,74.04263 17.14936,-59.10312 25.86504,-121.73854 19.21171,-183.23898 -29.8229,18.42707 -23.02973,88.64584 -23.4386,127.23176 6.07012,51.90775 -27.13498,98.60157 -18.30553,150.44763 3.69326,36.67883 15.29719,71.91433 21.1656,108.21831 -21.24395,24.908 14.59888,63.8872 23.07512,25.9787 -6.06407,-80.23688 -31.3913,-164.15109 -0.47814,-242.57675 17.05552,-53.9706 53.34516,-97.69533 89.50565,-139.91141 31.85564,-39.7626 20.19824,-96.92303 48.86613,-138.00947 -21.67308,59.4399 -1.2969,123.08608 -4.9644,184.27107 12.97946,58.14864 28.11509,116.40128 41.12799,174.02409 14.39747,-7.30972 1.53259,-64.98565 3.89524,-90.7056 -5.36015,-100.35162 -22.19684,-199.73708 -30.94181,-299.68506 3.93841,-62.51672 72.78014,-85.41705 98.84576,-135.94917 21.61127,-15.58259 46.69119,-91.6336 1.54105,-47.8464 -45.50162,30.38032 -75.3698,89.8626 -104.44122,125.45872 9.77296,-47.80197 27.43439,-94.41654 32.34479,-143.15279 -13.04944,-0.67608 -26.11428,-0.0906 -39.17083,-0.28345 z m 53.75,0 c -6.00057,20.20737 -26.92283,94.36056 4.53698,40.81534 13.35209,-15.66191 41.00005,-52.8655 -4.53698,-40.81534 z m 110.0625,0 c -32.6063,51.27058 -38.49257,115.10247 -74.87411,164.45474 -15.77049,13.8659 -9.84437,75.96445 0.40998,30.76312 16.61693,-57.63572 66.27296,-97.85803 86.14062,-154.12226 10.95748,-16.72135 25.6236,-51.98427 -11.67649,-41.0956 z m 48.1875,0 c -13.08773,26.92096 -51.26162,92.95057 -36.91464,99.66237 6.71005,-37.53266 45.51294,-73.60779 53.9425,-100.46601 -5.75951,-1.06679 -11.26917,1.63509 -17.02786,0.80364 z m 58.75,0 c -39.7657,46.2152 40.2271,-1.65496 0,0 z m 30.84375,0 c -51.43462,47.90531 -64.86336,120.6426 -103.77494,177.11648 -10.42216,16.48317 -5.87125,46.69037 6.91493,13.5832 29.70855,-59.53672 73.35597,-109.92476 110.67186,-164.37778 10.6986,-14.6499 9.7174,-33.71475 -13.81185,-26.3219 z m -865.1875,0.75 c 2.31949,6.13122 -6.22395,5.98317 0,0 z m 328.375,5.84375 c -22.07213,44.76815 6.61898,94.18195 -1.18196,139.83099 3.16403,-47.01558 -31.22562,-17.35427 -21.48245,12.69001 0.35871,20.74282 -11.78849,80.74401 2.9115,75.55465 14.36438,-45.81794 51.69004,-95.52664 32.7175,-142.78974 -6.72824,-27.91643 -1.58802,-58.59355 -12.96459,-85.28591 z m 479.09375,1.46875 c -44.63477,41.16913 -75.52277,104.64462 -60.76225,166.00232 24.05023,-32.77045 61.18071,-80.19978 59.24117,-115.9635 -26.7786,9.17694 -39.22486,82.85265 -54.63807,73.38337 4.08955,-48.51745 56.82594,-73.79194 56.15915,-123.42219 z m -217.65625,3.46875 c -38.39235,51.16322 -75.36037,105.98219 -94.42784,167.25724 -8.47733,55.88137 30.52628,109.77503 6.82211,165.24268 -2.98722,24.31173 -54.07587,92.91856 -31.1096,36.42455 14.99461,-55.83888 5.03227,-113.6333 -1.00007,-169.8058 3.00311,-66.63334 53.2016,-116.15255 88.9823,-167.99354 9.2555,-11.28773 19.37746,-21.92426 30.7331,-31.12513 z M 1024,308.92468 c -19.3111,11.43434 -26.75928,82.88968 0,37.82931 0,-12.60977 0,-25.21954 0,-37.82931 z M 5.5,323.39343 c -8.8896463,2.44475 -2.5039672,11.78063 0,0 z m 699.15625,7.6875 c -17.47116,53.22588 -20.87996,110.59089 -43.11883,161.86839 -4.66542,26.75527 3.30133,61.20624 -4.84691,83.87078 -6.92177,-72.91715 -18.34643,-154.86504 28.03123,-217.99997 6.16408,-9.58016 12.86542,-18.80836 19.93451,-27.7392 z M 408.625,352.01843 c -32.61699,49.04538 14.82575,106.69514 -5.46275,157.0221 1.68723,-44.27839 -31.6467,-105.62351 -1.67832,-149.8577 l 7.14107,-7.1644 0,0 z m -180.53125,4.96875 c -11.43971,57.64228 -10.07927,116.05882 0.12783,173.52725 -3.98037,54.88305 8.03428,107.55948 30.45655,157.02129 12.88385,50.30662 -8.08302,101.41783 -38.23686,141.10647 -37.72621,67.67996 -59.76633,142.90534 -95.8987,211.23981 11.43399,20.7791 45.81956,-41.5234 65.03354,-54.25782 35.14834,-43.42263 60.71917,-95.46952 74.96638,-149.22757 4.69664,-53.80115 -42.18934,75.61355 -33.30295,42.08595 -15.36964,29.19327 -43.40637,87.99662 -61.13762,95.39476 27.1364,-67.2403 62.27065,-131.0464 91.74676,-197.33873 32.35769,-54.17883 18.92761,-121.07121 5.20663,-178.99436 -29.27478,-37.82533 -27.82257,-87.43016 -20.93898,-132.13021 1.73325,-37.13401 -10.65265,-72.58298 -18.02258,-108.42684 z M 1024,379.42468 c -19.7707,54.58819 -57.16176,100.50913 -80.32142,153.10295 -6.79798,26.74031 -21.2979,96.46527 -34.52871,90.48551 17.44437,-36.6794 27.36913,-77.46348 25.25638,-118.21346 -19.13915,51.31235 -45.27787,108.77787 -60.55563,155.86714 67.02651,11.41485 60.31796,91.30704 53.94542,144.22902 1.39916,62.66354 -50.46916,106.55073 -61.04401,165.46968 9.56746,19.48822 -29.27842,98.53818 14.10863,74.26898 3.41256,-32.2485 16.56629,-102.68973 26.83314,-107.48948 -3.79086,32.66996 -20.00063,94.92208 -1.46119,111.40038 25.56523,-37.5053 44.84636,-78.56105 67.96612,-116.89316 14.53209,-29.88167 65.00457,-89.23077 44.19947,-110.47951 -15.6317,22.12906 -44.80756,78.53965 -63.62537,71.96605 14.00778,-61.13346 58.50937,-120.34793 37.96358,-185.42886 -13.36523,-74.14142 -1.90058,-150.01016 13.29649,-222.7053 11.869,-32.83076 21.1436,-66.56956 17.9671,-101.70095 l 0,-2.57083 0,-1.30816 0,0 z m -43.59375,10.9375 c -45.03507,36.1647 -73.67501,90.62558 -98.85913,140.95195 0.28618,28.0684 -24.24616,38.06431 -23.93507,4.0606 -3.56146,-37.6398 27.7543,-108.78256 -15.82742,-123.0933 -0.84617,41.76492 1.09046,85.17118 -5.99162,128.19276 6.19441,29.83119 3.94179,76.71236 30.12859,93.48961 27.31997,-35.09421 19.22505,-86.5765 48.40857,-121.62648 25.42497,-38.39173 62.96127,-73.22374 66.07608,-121.97514 z m -198.84375,9.40625 c -56.91442,26.31679 -59.15496,98.60906 -43.43405,150.73444 -2.15721,26.44189 5.8677,96.32153 33.22704,82.74239 9.28566,-47.41172 6.50695,-96.97539 -13.77109,-140.535 -1.69023,-29.88196 30.92757,-60.67612 16.94439,-72.56132 2.41103,-6.35113 9.71522,-13.03004 7.03371,-20.38051 z m 48.6875,31.46875 c -29.28542,13.03282 -34.70312,101.99036 -4.08528,85.32413 -1.09492,-28.32668 -9.20174,-58.53236 4.08528,-85.32413 z m -130.46875,8.15625 c 3.6178,7.40527 -7.14294,8.5688 0,0 z m -435.625,10.375 c -24.29106,56.82232 16.91867,110.72537 36.3735,161.67207 8.20605,32.34855 7.74281,66.22119 3.7312,99.14388 29.00661,-44.96299 12.16245,-118.93471 1.4832,-152.08679 14.67994,18.36928 30.44334,88.03499 35.14981,25.7416 14.34702,-61.30948 -66.7238,-74.95882 -74.12239,-124.67639 l -2.61532,-9.79437 0,0 z m -104.96875,8.34375 c 12.48004,67.81765 31.20336,137.31867 15.74967,206.35813 -4.27796,55.47479 18.80943,110.02701 7.73442,165.4554 10.29497,19.55285 20.16477,-47.58952 18.47985,-62.9873 1.44704,-68.45886 5.85304,-136.41785 11.25067,-204.63579 2.70411,-44.15345 -18.19677,-79.08634 -53.21461,-104.19044 z m 333.71875,3.5625 c -28.23699,29.96281 -73.9261,100.94376 -63.19033,122.81645 22.2492,-39.95174 64.57616,-73.30094 63.19033,-122.81645 z m 55.15625,7.3125 c -50.96889,25.49157 -79.84413,79.08046 -116.17224,120.40975 -10.71571,17.2446 -39.638,75.70261 -19.10861,71.93158 41.82658,-49.41185 74.58671,-105.90179 119.58727,-152.72893 8.49254,-11.51742 15.44001,-24.99763 15.69358,-39.6124 z M 1024,474.42468 c -9.1611,14.0531 -2.3545,96.90084 0,60.10571 0,-20.03524 0,-40.07047 0,-60.10571 z m -660.40625,10.84375 c 28.24839,56.51454 18.73908,122.10941 13.37807,182.50262 -4.97892,25.94259 -12.41005,19.07336 -12.46575,-0.4255 -14.74455,13.9692 -25.40527,87.53988 -17.54673,29.88901 10.55699,-56.34316 35.59307,-114.34275 22.54093,-171.8978 -5.75831,-12.23447 -11.89809,-26.69088 -5.90652,-40.06833 z M 95.6875,486.23718 C 61.515128,554.57667 83.979939,635.89353 51.17478,704.78004 28.722114,763.4125 67.43349,822.14028 58.387371,880.95208 56.477044,932.7342 -7.2848807,958.26876 1.1075749,1010.6509 c 3.5197762,23.5259 2.2451544,52.105 7.0745383,11.081 18.7683298,-49.24407 64.8144288,-88.22918 66.1739018,-143.52591 1.51656,-20.74041 -10.673688,-92.03645 6.377562,-42.38998 17.490634,-40.82156 -2.0584,-100.7192 12.487961,-147.81639 7.642632,-57.60458 9.047342,-116.48879 0.797566,-174.08544 0.315089,-9.24047 1.563341,-18.42633 1.668396,-27.677 z m 700.34375,31.25 c -4.79518,55.22098 -8.72827,111.27186 5.64449,165.41392 4.25193,54.22262 -4.52034,113.94436 29.89107,160.71432 28.90351,58.99671 9.79658,131.80586 -33.12066,178.78718 -28.95791,27.3634 11.7204,41.3388 16.15957,7.9743 30.28426,-57.90005 59.94215,-121.75354 46.3508,-188.91371 -0.2638,-53.7169 -44.1573,-94.29005 -42.98219,-147.39335 -0.40154,-47.11081 6.40174,-95.99046 -12.68846,-140.70691 -3.21322,-11.92552 -5.89257,-23.98954 -9.25462,-35.87575 z m 178.6875,11.4375 c -26.83497,49.81719 9.05681,103.22663 3.51758,154.53208 -13.36529,-3.12044 -8.43257,-66.22661 -19.99419,-89.25576 -4.2445,-22.67085 -2.74722,-49.46156 16.47661,-65.27632 z M 33.6875,574.48718 C 2.9855942,619.78815 -5.67926,675.38546 -0.38409503,728.87188 -2.0480499,784.52637 8.5771407,839.51234 18.921011,893.67237 16.945945,912.97717 13.360295,975.75187 30.735888,926.1 50.583896,871.09648 42.985792,810.72979 27.699274,755.61969 28.858499,695.38056 24.289305,634.15799 33.6875,574.48718 z m 983.7813,0.875 c -19.18136,34.64939 -18.44494,114.13179 -7.1082,127.65975 22.2492,-37.99986 16.1825,-87.64011 7.1082,-127.65975 z m -504.43755,30.1875 c -12.69829,59.27742 -48.55533,108.9035 -78.67791,159.65075 -4.82599,20.26844 -25.15632,66.70014 -13.71384,19.26741 15.55393,-56.34584 52.67685,-103.11564 76.32452,-155.91709 4.82619,-8.01755 10.11809,-15.76995 16.06723,-23.00107 z M 837,617.83093 c -21.44021,61.2542 20.37148,117.80286 44.00825,170.97569 7.294,29.01312 11.64926,64.81079 8.99307,91.71862 24.64102,-43.72589 4.57652,-109.59843 -2.46476,-142.02495 15.02778,20.95595 32.424,90.10675 32.75382,29.77989 C 921.87111,719.39171 884.11859,682.8746 849.35243,656.20896 843.59825,644.00369 840.28384,630.86097 837,617.83093 z m -711.25,3.4375 c -14.69666,60.14633 -11.24863,124.3723 7.19349,183.17496 13.03052,23.06109 -12.09179,87.73938 -9.96179,30.96806 1.97502,-21.5626 -4.53668,-76.85579 -25.785428,-69.1742 0.686726,59.74877 24.032488,122.42289 -4.335848,179.56694 -8.318939,39.67101 -72.829649,86.34101 -66.74218,107.43501 58.459063,-13.2225 67.229224,-89.37316 94.655416,-134.2076 25.65927,-51.47988 32.78503,-109.24841 26.46069,-165.97047 -6.9469,-43.5697 -5.55036,-90.41323 -21.48435,-131.7927 z m 603.9375,1.1875 c 16.98353,82.28821 26.47625,166.56104 20.67732,250.49167 8.96719,45.92963 19.04472,101.28015 16.68099,142.1372 34.67295,-43.31575 6.49579,-100.91521 16.31838,-151.60081 C 780.86871,806.2206 787.889,748.4931 781.39121,691.60246 777.4939,658.86745 743.09283,648.95712 729.6875,622.45593 z m -68.375,28.3125 c -42.11456,70.63209 -10.38731,157.32725 -40.53091,231.72341 -17.08307,47.62784 7.99288,92.76635 9.69424,139.27326 -3.99232,33.019 29.58516,33.1872 17.7446,-0.3637 -6.7796,-18.7137 -4.67576,-34.42167 5.92484,-8.8938 25.31709,-47.08294 -4.22901,-106.62578 10.65295,-158.22906 6.55485,-61.96912 -3.52202,-123.40567 -5.8534,-184.97249 l 0.91938,-9.26893 1.4483,-9.26869 0,0 z m -435.03125,5.65625 c 0.85399,25.07885 -36.78901,93.23426 -6.47502,91.49647 10.98638,-28.78362 18.38537,-61.76093 6.47502,-91.49647 z M 935.5,663.26843 c 28.78205,62.71332 35.2836,137.38594 15.17851,203.1872 -9.54196,-63.37243 -18.25532,43.86342 -25.04092,34.22983 7.4666,-60.20137 30.29485,-120.42538 24.81885,-181.0833 -6.81523,-18.00178 -21.22222,-35.9626 -14.95644,-56.33373 z m 88.5,36.59375 c -8.6277,20.62186 -28.72267,52.86478 -17.8171,71.1813 14.6641,-20.4545 20.8409,-46.2618 17.8171,-71.1813 z m -531,10.34375 c -27.68839,54.42289 -52.84487,119.44769 -29.42148,179.94948 19.16887,50.66595 1.25796,116.69489 28.59835,158.99469 39.06125,-36.7609 12.39831,-101.41405 5.1282,-147.75345 C 487.05342,838.12613 486.73925,773.85713 493,710.20593 z m -242.75,10 c -38.48805,48.44028 -45.96094,113.34057 -82.59421,162.99507 -2.47777,43.00439 29.34929,-22.8873 33.2897,-35.6854 18.46074,-40.15195 52.49624,-80.97657 49.30451,-127.30967 z m 343.875,19.625 c -36.73018,66.1998 -46.45987,147.14551 -21.8742,219.17573 2.17552,26.41257 -0.0904,109.34944 40.08476,82.67864 16.9355,-53.97385 -29.55644,-104.61943 -14.50448,-159.65291 -5.26498,-47.52195 -11.48172,-94.472 -3.70608,-142.20146 z M 1024,746.29968 c -13.4213,29.42347 -48.47687,88.19241 -35.71214,103.88241 C 1022.2364,827.37276 1026.9714,783.66796 1024,746.29968 z m -620.46875,0.8125 c -23.88232,64.93303 -36.48062,135.31154 -29.91906,204.30803 8.9455,31.03653 9.96915,74.83509 33.12255,96.33969 17.30973,-40.8538 -9.89741,-82.81262 -8.83902,-124.81987 -3.67916,-58.54743 -0.81248,-117.65443 5.63553,-175.82785 z m -247.125,0.4375 c 14.57214,57.05434 -10.75289,115.72041 -15.30474,170.73005 21.20657,-48.93033 55.6415,-106.88081 24.95575,-159.37513 l -4.43189,-5.94246 -5.21912,-5.41246 0,0 z m 538.15625,43.03125 c -6.44891,57.6172 -7.20574,119.66501 11.35592,174.57182 8.91184,28.20222 6.24272,73.99125 11.86523,79.64975 24.05832,-47.379 3.19769,-104.86977 -0.50394,-155.04151 -5.20284,-33.4321 -5.97345,-68.84678 -22.71721,-99.18006 z m -323.28125,15.46875 c -35.63078,42.53151 -39.41111,103.29325 -77.91365,143.97061 -7.02366,30.47698 -49.5119,83.24581 -30.6409,101.01391 37.26572,-35.0837 35.05198,-96.96994 77.6226,-131.72464 19.84847,-34.27105 30.05538,-73.7568 30.93195,-113.25988 z m -290.125,3.125 c 2.069275,1.9299 -6.20578,-0.43993 0,0 z m 722.40625,24.9375 c 3.07264,23.70021 -32.57165,98.31905 0.71099,88.52373 6.68774,-28.66305 16.40888,-61.46736 -0.71099,-88.52373 z M 1024,881.58093 c -29.78283,38.44256 -12.6463,90.8592 -30.74828,133.15837 -10.13425,27.4815 23.38478,54.0585 27.78398,12.8386 3.415,-21.3393 6.8637,-88.22178 -1.3865,-78.55905 -5.9771,19.84694 -19.6286,77.23995 -13.5611,24.19464 6.9725,-30.2613 22.1375,-59.76952 17.9119,-91.63256 z M 80.1875,893.23718 C 73.992967,925.18155 38.17034,983.77431 49.221124,998.14029 74.138152,970.90578 94.6876,930.2702 80.1875,893.23718 z m 752.40625,4.9375 c -34.08323,45.85503 -40.21437,105.71922 -72.70973,152.46022 42.52493,-19.6364 51.53943,-75.61509 70.91333,-114.12661 2.74631,-12.54886 3.60937,-25.58523 1.7964,-38.33361 z m -479.8125,19.53125 c -34.13344,16.10191 -19.92313,102.37867 7.4422,90.38087 0.30397,-30.24691 -0.8903,-60.75182 -7.4422,-90.38087 z M 735,926.26843 c 18.11217,33.08822 -18.32936,111.19167 10.23739,119.26347 C 770.27422,1009.9312 755.56803,960.29847 735,926.26843 z m -573.0625,0.5625 C 148.40125,948.79 112.54945,967.69544 117.52434,954.19909 110.79862,984.3857 63.670694,1032.9289 84.156309,1051.7625 133.806,1033.4988 134.21126,966.28489 161.9375,926.83093 l 0,0 z m 828.1875,0.84375 c -12.5701,35.56657 -32.6543,99.27432 -16.34056,123.68982 34.71986,-25.8544 -3.90207,-85.79617 16.34056,-123.68982 z m -317.21875,3.8125 c 0.73519,34.42048 -0.73252,107.10402 23.25696,115.86172 15.36224,-38.2369 -0.56645,-83.92239 -23.25696,-115.86172 z m -349.96875,37.1875 c -9.30628,20.50848 -43.05623,77.84662 -2.85264,78.70182 11.78655,-24.6891 6.60714,-52.80337 2.85264,-78.70182 z m -68,12.15625 c -14.32434,17.31218 -83.89248,71.41027 -28.70159,71.12887 25.42523,-13.0232 26.95229,-46.2435 28.70159,-71.12887 z m 703.96875,10.0625 c -24.13831,8.21537 -38.62562,86.55217 -5.3129,48.07317 3.64919,-15.7399 5.53305,-31.9095 5.3129,-48.07317 z m -104,8.34375 c -23.92687,9.53632 -30.96965,81.08462 -6.37059,33.63442 3.34337,-10.926 5.90911,-22.1808 6.37059,-33.63442 z m -854.5625,3.71872 c 0.10140094,3.8326 0.0885462,3.3467 0,0 z m 335.0625,10.125 c -29.93066,25.1021 46.02695,56.7804 10.31697,16.4774 -3.86259,-5.2093 -7.40685,-10.674 -10.31697,-16.4774 z m -39.15625,0.1875 c -24.55035,12.6032 -5.65896,61.7425 0.8894,20.0298 0.0813,-6.6841 -0.0464,-13.3893 -0.8894,-20.0298 z m -127.75,8.3438 c -33.04132,9.6916 -7.23529,52.1603 -0.0935,9.8732 l 0.0935,-9.8732 z"
       id="path3084"
       inkscape:connector-curvature="0" />
  </g>
  <g
     transform="translate(0,-284.36218)"
     id="g3087"
     inkscape:groupmode="layer"
     inkscape:label="Layer 1 copy copy copy">
    <path
       style="fill:#000000"
       d="m 469.71875,284.36218 c 6.35614,54.13567 44.6906,109.93716 14.32711,163.26949 9.31193,5.03319 23.50988,-48.62155 31.77357,-49.08548 16.58099,-27.8861 30.13243,-115.97241 -12.33753,-105.28399 2.84167,17.2815 26.15871,89.6467 -0.16441,43.70115 -8.59161,-18.93767 -17.2883,-38.91 -33.59874,-52.60117 z M 386.5,284.39343 c -61.91381,-6.12176 -62.00099,90.83946 -93.34103,102.83042 -24.65295,-26.82029 28.09798,-88.51028 -10.76613,-97.25359 -23.63282,43.02805 -16.40808,98.82174 -9.34354,145.68547 6.38448,46.53304 34.99428,19.90178 36.48867,-11.39786 C 326.07662,373.03846 354.31274,326.99202 386.5,284.39343 z M 0,284.42468 c -14.447416,56.73017 41.82229,-3.55046 0,0 z m 41.6875,0 C 18.981769,312.09248 -10.778117,350.68111 3.0816042,388.0276 6.3718765,369.01812 30.021013,314.35721 17.703638,364.13014 c -12.7676539,69.52943 26.609587,142.6887 -6.521814,209.28965 -8.9623943,18.69503 -5.3300998,41.28258 7.353393,10.61882 26.770223,-51.88828 80.426098,-90.53286 85.571543,-152.53173 1.7354,-23.73233 30.794,-92.20698 15.94309,-33.23896 -1.06832,60.637 2.13827,122.50914 12.44612,182.19376 20.78317,34.39665 6.02239,96.92277 32.59494,117.90601 8.05382,-116.62934 -15.9348,-232.24366 -23.92643,-348.20501 10.11565,-29.67479 -4.66767,-95.25152 -39.12125,-48.75333 -20.484308,27.47715 2.5517,105.54571 -15.778993,106.70464 -8.224046,-36.05862 9.756906,-101.45365 -17.520745,-118.4224 -37.090816,46.95201 18.183908,100.2056 4.28081,151.14896 1.531178,19.41372 -22.313125,84.58754 -34.267763,66.22339 19.426554,-71.27509 -15.321937,-143.87477 2.048288,-215.22596 l 0.882673,-7.4133 0,0 z m 126.9375,0 c -10.45289,60.68114 -4.35064,123.92719 16.27425,181.86844 36.35052,-14.90266 18.90922,-75.90706 11.68916,-106.01363 -23.09542,-27.40115 24.67939,-93.64701 -27.96341,-75.85481 z m 56.125,0 c -36.13326,-4.34992 -12.91461,87.29339 -9.17517,32.99584 1.6125,-11.46849 12.08224,-20.72682 9.17517,-32.99584 z m 25.78125,0 c -15.56029,22.89754 -26.81549,67.75744 6.46875,80.625 -3.91386,-26.73899 4.06921,-54.84846 -6.46875,-80.625 z m 62.34375,0 c -26.48947,21.18048 24.23833,7.89975 0,0 z m 17.34375,0 c -19.64913,18.68777 -8.48771,59.80127 5.33651,17.60872 6.20044,-7.6899 13.55887,-24.56066 -5.33651,-17.60872 z m 85.9375,0 c -26.74745,49.5536 -50.46428,100.79253 -67.89111,152.7226 -16.44975,12.23444 21.60189,-48.74529 16.74847,-66.54037 -0.0519,-57.23722 -20.0948,27.6797 -31.55055,41.14131 -7.67823,28.40718 -63.14765,81.51185 -9.604,83.41339 47.31944,31.43995 25.76914,92.47285 23.67416,138.79944 -6.2158,49.99274 -38.85674,90.38011 -58.735,134.78332 -16.21103,56.28189 -16.20574,118.7332 -51.02083,168.28892 -11.52944,29.82678 -46.60981,56.87016 -39.85188,90.00491 59.37785,-60.08767 86.00094,-143.94681 106.74809,-223.9109 5.06696,-21.73436 14.84572,-44.42681 11.03485,-9.20242 3.62277,33.27773 -29.33173,101.50928 -9.60453,114.0653 17.33119,-69.72881 68.29406,-123.20171 100.27267,-186.00012 32.35132,-50.78871 74.63941,-97.17287 91.12153,-156.39643 -43.59929,44.1072 -72.25308,100.83373 -115.23514,145.07682 -22.33928,-7.25198 21.27777,-63.40844 24.80902,-88.75478 27.42949,-78.3128 -0.41518,-161.84372 18.27165,-241.50038 2.8303,-32.07198 18.31462,-66.74077 13.22613,-97.17108 -7.24284,-2.80486 -15.09851,1.18847 -22.41353,1.18047 z m 119.03125,0 c 8.44573,51.68626 12.18313,107.94785 -23.62827,150.36199 -15.26394,31.89807 15.9764,50.58051 31.27075,15.04241 25.10838,-30.16452 24.28332,-75.3538 6.25131,-108.78115 17.4043,48.11514 39.761,5.00147 24.59889,-24.29347 -2.5441,-18.79118 -16.80865,-39.76632 -38.49268,-32.32978 z m 90.625,0 c -7.97164,25.28382 -52.18096,-27.3108 -36.20184,16.36026 14.81065,41.76284 -1.2777,83.05813 -9.82896,123.80259 0.54465,22.73452 -33.99566,89.64266 -1.68342,41.93648 29.86185,-56.10861 34.3757,-120.45564 54.20469,-179.84465 -1.20757,-2.90516 -4.18735,-1.8177 -6.49047,-2.25468 z m 19.375,0 c -19.71597,16.86473 -5.25386,60.06138 4.45093,18.00905 6.6099,-7.1885 13.66408,-26.0746 -4.45093,-18.00905 z m 49.8125,0 c -62.31043,32.04991 -68.06213,108.614 -94.65217,165.52573 -49.55464,80.43447 -119.17145,148.02328 -155.75775,236.47855 -43.61301,92.77709 -48.24341,198.80367 -27.54406,298.07671 1.27148,25.09183 12.17888,94.50963 43.19388,55.66993 -1.02824,-50.35022 -20.53826,-98.84727 -16.48687,-149.94749 4.80481,-24.23581 -13.79278,-60.50008 -14.42127,-17.38853 2.58243,20.12451 -3.14864,72.93449 -11.83009,25.33636 -1.9734,-56.40031 33.56601,-104.78451 52.41115,-156.02917 17.84848,-43.26255 42.94687,-83.0213 71.79212,-119.54231 25.20154,-44.89344 29.83107,-97.73191 52.76386,-143.58603 -30.71637,88.02987 15.14813,185.82565 -27.45145,271.48595 -1.55923,24.48389 -40.43522,91.11483 -22.46125,31.7036 12.0971,-50.67528 17.43109,-103.35168 11.8171,-155.29348 -39.51494,40.75477 -17.58933,104.98277 -23.63049,155.94829 -11.42169,53.43461 -29.18097,108.09068 -11.34103,162.51834 18.77702,36.25953 0.0172,79.23177 20.84066,108.41647 37.60428,-19.1223 -1.0819,-84.92988 3.92978,-121.66164 -13.66803,-84.18686 14.03538,-170.79881 68.3778,-235.54702 30.20654,-33.56695 58.39664,-70.71426 60.7218,-117.94267 1.34897,-24.79161 30.35521,-87.26464 14.16011,-32.2079 -7.78136,53.69658 4.33421,107.92212 3.59021,161.57769 12.6986,56.33285 27.17849,112.24603 39.90498,168.57237 15.71969,-42.3312 -1.21784,-92.48739 0.61675,-137.68049 -6.60541,-86.37182 -22.27715,-172.09234 -27.10723,-258.4571 8.22559,-58.75484 72.97871,-81.21303 98.28967,-130.20224 25.6763,-13.7795 40.22268,-91.56385 -2.67938,-44.9146 -43.27225,31.80945 -67.53028,81.31333 -100.22079,122.52692 3.62462,-44.995 43.60029,-112.82746 22.55519,-143.45518 -9.79409,-0.12958 -19.58718,0.16357 -29.38123,0.0189 z m 53.75,0 c -7.01031,16.38992 -23.36244,88.28587 4.53698,40.81534 14.40729,-14.27143 38.73512,-55.19205 -4.53698,-40.81534 z m 110.0625,0 c -33.81474,53.81654 -39.72947,121.13634 -79.80494,171.61158 -11.13065,18.67387 -0.1157,59.89786 6.99352,18.25293 20.06712,-57.04161 67.68084,-99.12753 88.66207,-155.7822 12.20683,-16.0261 11.86266,-45.74549 -15.85065,-34.08231 z m 48.1875,0 c -12.22072,32.1074 -43.59642,65.13518 -36.91464,99.66237 0.14055,-35.73642 60.39075,-80.12387 45.42826,-100.15244 L 907,284.42468 z m 58.75,0 c -41.23055,41.1586 35.8471,3.50845 0,0 z m 30.84375,0 c -52.59674,50.16701 -67.19331,124.97956 -106.99455,183.79052 -5.6101,51.968 25.90971,-28.86661 38.05793,-41.44789 27.24796,-43.94083 63.15513,-82.38875 88.41267,-127.35357 5.4043,-13.13038 -8.3681,-20.72374 -19.47605,-14.98906 z m -865.1875,0.75 c 3.02748,6.24703 -6.88034,4.83113 0,0 z m 328.375,5.84375 c -21.99593,37.01213 7.4039,119.59202 -1.00884,131.8955 -20.61663,-44.71015 -25.33356,35.52986 -24.45269,55.01525 -5.50527,15.2677 1.63479,65.21541 12.01677,23.81317 26.27563,-47.24983 39.22835,-99.86056 22.71246,-152.2126 -1.42793,-19.66825 -1.4036,-40.0497 -9.2677,-58.51132 z m 479.09375,1.46875 c -44.74714,41.11459 -75.38643,104.65022 -60.76225,166.00232 21.77825,-31.06237 67.36342,-85.00135 54.38392,-113.52302 -21.18831,9.16452 -36.24764,86.25178 -48.46886,62.10663 9.01675,-42.57069 55.76964,-68.70953 54.84719,-114.58593 z m -217.65625,3.46875 c -39.26316,54.25975 -81.68302,111.07082 -95.48782,177.71257 -1.87776,53.51486 30.4698,107.36729 6.78812,159.82353 -2.47227,21.91933 -51.81163,81.50459 -28.68212,26.14786 15.45262,-58.35193 -0.9978,-118.2487 -1.23247,-176.86323 10.60167,-66.29306 60.24833,-116.24488 98.67853,-168.0782 6.22073,-6.67841 12.84185,-12.99504 19.93576,-18.74253 z M 1024,308.92468 c -24.78562,10.83582 -18.077,83.04868 0,32.68469 0,-10.8949 0,-21.78979 0,-32.68469 z M 5.5,323.39343 c -9.4951601,1.64036 -0.7388294,11.63434 0,0 z m 699.15625,7.6875 c -17.07992,54.99333 -22.81011,113.2786 -43.85258,166.97043 -3.17979,22.06508 4.08877,70.76303 -4.77337,71.90715 -8.86181,-76.09092 -14.97102,-162.73976 38.31932,-225.25147 l 5.07641,-6.87137 5.23022,-6.75474 0,0 z M 408.625,352.01843 c -32.37269,48.85976 14.54204,105.7055 -5.46275,157.0221 1.54696,-51.15123 -36.82846,-113.60987 5.46275,-157.0221 z m -180.53125,4.96875 c -11.40437,57.1375 -10.09499,116.32115 0.12783,173.52725 -9.65795,64.95755 23.30547,124.03901 34.2961,185.32302 3.13807,66.15796 -49.9436,112.80983 -70.84801,171.3791 -22.45782,50.84715 -41.10717,103.44066 -67.1271,152.66545 32.45586,2.6266 52.48452,-49.74207 77.76181,-70.93207 29.12963,-42.20317 54.08966,-89.76484 62.54046,-140.57849 -11.78466,-9.80305 -32.96117,59.26721 -36.62994,55.91207 -13.54699,25.40181 -41.7421,85.93388 -55.54593,83.29991 31.15128,-77.66907 75.10421,-149.94941 104.31763,-228.19781 11.28548,-47.09365 0.86973,-95.69489 -9.93129,-141.84138 -35.67534,-43.6578 -22.21859,-101.76158 -21.32702,-152.85408 -2.37167,-29.85145 -11.63315,-58.50614 -17.63454,-87.70297 z M 1024,379.42468 c -23.5252,68.29993 -79.86461,122.06494 -90.74532,195.06094 1.52329,19.3249 -35.50601,75.22783 -15.11522,27.48972 11.35727,-25.77411 20.60655,-80.93555 14.45253,-92.3476 -19.07413,50.5443 -41.74276,99.71536 -58.74137,151.03908 49.91109,6.31107 61.74316,64.70328 57.40029,106.62637 -1.76618,42.12672 -5.72104,85.42643 -29.48662,121.74171 -17.80003,32.39959 -38.70236,66.43299 -34.87282,104.5696 -9.37933,16.9157 -10.40786,79.0893 14.72012,44.5612 3.82259,-26.976 13.64764,-93.28189 25.23741,-94.56679 -2.84986,27.80457 -22.52151,97.99489 4.10592,97.87419 35.42582,-58.05006 66.64694,-118.58437 102.79948,-176.1916 17.1513,-19.77146 7.0042,-64.34835 -9.246,-22.60396 -5.52336,20.16532 -62.62439,79.76354 -43.23986,27.61094 18.97973,-54.00767 50.36516,-111.03483 30.28698,-169.53423 -13.17711,-89.33045 3.53967,-180.2328 29.10298,-265.73737 3.981,-18.2859 4.5629,-36.98546 3.3415,-55.5922 z m -43.59375,10.9375 c -45.41475,36.77238 -73.11448,89.65578 -98.85913,140.95195 0.22771,42.71842 -35.81892,17.49703 -23.85015,-11.44834 6.78344,-28.66484 16.64022,-110.89129 -16.04127,-99.7347 3.59296,48.57391 -8.12187,97.27992 -2.22435,145.17658 -3.15873,28.84288 26.32971,100.82113 41.47577,39.77553 8.43265,-54.15391 33.83715,-101.66302 69.85121,-142.55467 15.13189,-21.33645 28.13315,-45.52777 29.64792,-72.16635 z m -198.84375,9.40625 c -55.95438,25.84047 -59.89035,99.01428 -43.43405,150.73444 -4.59966,22.95158 8.15627,105.37637 34.8254,73.82947 17.33296,-52.67973 -16.20611,-104.2645 -11.46857,-153.89488 14.05381,-24.05335 14.65904,-46.27334 20.07722,-70.66903 z m 48.6875,31.46875 c -30.27972,9.95742 -34.1038,101.01586 -4.36581,79.99215 -1.73058,-26.54655 -8.09496,-54.95791 4.36581,-79.99215 z m -130.46875,8.15625 c 4.51529,7.49862 -8.12068,7.14422 0,0 z m -435.625,10.375 c -25.20338,59.08251 20.46371,113.91573 37.81179,167.75468 11.04692,22.93164 -1.76243,91.74739 7.20703,84.30781 20.04665,-45.49469 10.05595,-97.52488 -3.43092,-143.33333 10.56406,16.73922 32.28663,81.26804 35.14981,25.7416 14.84868,-62.99395 -73.35034,-76.35744 -76.73771,-134.47076 z m -104.96875,8.34375 c 13.42063,69.40567 30.90418,140.94694 15.42691,211.55624 -2.52902,53.67079 18.77087,106.68106 8.05718,160.25729 25.83425,-11.13069 15.78763,-70.84518 19.59292,-101.44769 0.70274,-63.44126 10.25246,-126.73595 9.23162,-190.03523 -4.32399,-33.06002 -25.49494,-61.53214 -52.30863,-80.33061 z m 333.71875,3.5625 c -27.87361,34.44866 -60.21512,72.48912 -64.56009,118.16184 19.13935,-20.84277 66.51963,-73.36003 64.56009,-118.16184 z m 55.15625,7.3125 c -53.33054,28.27049 -84.51246,82.95753 -120.91192,128.60632 -16.91004,16.774 -32.87216,93.51115 0.93266,44.90648 36.04473,-48.18041 70.89813,-97.50798 110.28493,-142.89355 5.51978,-9.25855 9.52416,-19.72579 9.69433,-30.61925 z M 1024,474.42468 c -11.2582,18.03005 0.1125,100.62411 0,44.67185 0,-14.89061 0,-29.78123 0,-44.67185 z m -660.40625,10.84375 c 28.65804,59.33181 19.51113,127.8318 11.41522,190.73246 -9.38141,26.46999 -9.96146,-30.07991 -18.27084,4.23056 -6.85346,16.02149 -16.23901,57.34282 -9.77879,17.00311 11.44488,-62.48102 42.62575,-129.01724 15.18146,-191.50335 -1.54121,-6.74708 -1.47724,-14.07517 1.45295,-20.46278 z M 95.6875,486.23718 C 61.157922,556.46564 84.146253,640.03281 49.24571,710.27711 27.898812,778.30611 83.349388,849.86967 47.451295,915.69686 13.915069,938.52577 -12.373369,1027.0233 6.6359336,1033.9991 17.664849,974.7898 80.050761,933.02609 74.366102,868.3935 73.34951,854.57485 66.941584,795.82445 80.733577,835.81601 97.841084,782.74494 79.129548,725.43055 95.203737,671.76671 102.21354,617.03135 99.680424,561.59457 94.397946,506.9922 c 0.4888,-6.91395 1.210809,-13.81752 1.289554,-20.75502 z m 700.34375,31.25 c -6.48185,58.5273 -6.3669,118.07086 6.30282,175.6406 1.59387,53.11157 -1.18852,110.93844 31.80253,156.05784 27.1983,62.54044 2.176,135.92477 -43.49226,182.78438 0.4526,43.4991 34.21945,-10.7275 37.94866,-29.1597 26.98271,-52.40442 43.81878,-112.34477 31.82443,-171.27127 -10.5868,-58.78144 -54.84038,-110.00586 -41.91051,-173.04127 5.15418,-49.17749 -8.83004,-94.58143 -22.47567,-141.01058 z m 178.6875,11.4375 C 944.82316,574.0787 990.88,648.21506 974.01411,679.6702 969.63069,634.50228 947.71624,586.92937 963.43734,542.60787 l 4.88,-7.26764 6.40141,-6.41555 z M 33.6875,574.48718 C -12.605009,641.07905 -2.5363893,725.26822 3.4359682,801.52134 6.7698383,843.15813 22.517733,883.54493 17.209908,925.50803 21.180072,973.85486 43.750285,889.69005 41.905499,873.28705 46.261748,831.5478 35.451708,790.32467 27.79177,749.96947 28.595385,691.46784 24.567173,632.55995 33.6875,574.48718 z m 983.7813,0.875 c -16.3806,39.31292 -21.80617,87.18706 -7.1082,127.65975 22.2033,-38.71023 16.3236,-86.07833 7.1082,-127.65975 z m -504.43755,30.1875 c -12.61131,58.96264 -48.39814,108.73733 -78.67791,159.65075 -1.66489,16.42681 -25.16207,62.23716 -13.71384,19.26741 18.18161,-60.26966 56.04083,-111.96408 83.93703,-167.71254 l 4.1131,-5.68854 4.34162,-5.51708 z M 837,617.83093 c -22.33995,63.31423 23.80399,120.53206 45.34044,176.49133 10.01824,20.54893 4.57167,85.73629 11.77127,77.75842 20.20664,-38.05555 -3.58345,-107.50401 -3.73443,-129.12974 8.08034,16.08216 30.88947,78.15397 29.9131,25.32924 7.58895,-64.17167 -66.5869,-88.12891 -80.78412,-140.672 L 837,617.83093 z m -711.25,3.4375 c -17.14975,65.89633 -8.25249,135.37027 10.93036,199.46123 4.64503,20.07806 -17.59839,57.81377 -13.69866,14.68179 3.84328,-19.03915 -6.29176,-80.62488 -25.656933,-63.56444 3.301603,60.30095 22.444123,124.31374 -6.651687,181.46956 -7.647867,34.76493 -71.387704,72.84323 -59.217786,98.50153 57.881932,-21.6688 62.430457,-91.35683 91.669776,-137.63094 32.50173,-65.50509 29.09766,-140.78976 18.46001,-211.0623 -2.66971,-27.66872 -5.78576,-55.72331 -15.83508,-81.85643 z m 603.9375,1.1875 c 16.97137,82.20455 26.47734,166.53148 20.67732,250.49167 8.7587,46.85694 18.59355,94.213 16.68099,142.1372 35.04201,-49.42522 6.41572,-112.36449 15.84845,-167.7173 -1.71198,-55.58349 6.85858,-112.201 -4.29382,-167.04775 -9.61612,-24.45748 -37.30505,-34.76971 -48.91294,-57.86382 z m -68.375,28.3125 c -42.96992,73.68241 -9.32074,164.06242 -43.25593,240.6254 -7.41362,50.98953 8.45707,105.88577 19.40135,153.61297 30.84436,10.5092 -7.69652,-72.3611 16.68735,-32.4992 25.26983,-53.77124 -5.10984,-114.08987 11.69303,-169.84219 6.10352,-62.66738 -9.17644,-125.29772 -5.17985,-187.71123 l 0.39712,-2.54147 0.25693,-1.64428 0,0 z m -435.03125,5.65625 c 1.30818,23.15056 -37.16046,92.67973 -4.46095,86.05221 9.78371,-27.25935 15.64275,-58.25213 4.46095,-86.05221 z M 935.5,663.26843 c 28.76658,63.03514 35.32131,136.63933 15.17851,203.1872 -7.67808,-65.06644 -29.95177,83.05726 -21.60615,11.65245 8.25996,-54.39439 30.40465,-110.29139 18.52771,-165.25946 C 940.53284,697.4918 929.94576,680.87965 935.5,663.26843 z m 88.5,36.59375 c -9.2318,14.74102 -33.01855,74.17312 -12.7173,63.27214 10.9705,-18.96726 15.3665,-41.55174 12.7173,-63.27214 z m -531,10.34375 c -30.0012,57.16481 -54.01738,126.786 -26.24175,189.61984 14.27442,48.85132 -1.20543,103.82003 25.41862,149.32433 43.11111,-46.7373 6.62747,-111.52773 2.50418,-165.57328 C 487.05231,826.12862 487.32797,767.81683 493,710.20593 z m -242.75,10 c -38.48213,48.45982 -46.00441,113.4122 -82.59421,162.99507 17.05338,31.51681 42.64356,-70.8688 62.04109,-89.17605 11.98495,-22.653 22.42979,-47.64386 20.55312,-73.81902 z m 343.875,19.625 c -38.61222,67.72541 -44.90285,151.04771 -21.50689,224.74992 -4.92655,26.1867 11.00612,113.48055 42.18008,67.02145 0.83,-59.60952 -26.94817,-116.07365 -19.93053,-176.2496 -4.15932,-38.30973 -7.03442,-77.26808 -0.74266,-115.52177 z M 1024,746.29968 c -9.6091,26.47775 -54.45238,89.18262 -29.68388,99.36744 C 1022.9584,821.76884 1026.748,781.0129 1024,746.29968 z m -620.46875,0.8125 c -30.6957,83.35536 -43.63871,176.37318 -16.99456,262.55692 2.80785,20.0855 26.36987,56.4356 25.7194,15.001 -0.95973,-45.33655 -19.09608,-88.76713 -15.75906,-134.71217 -1.07553,-47.70676 1.78305,-95.43873 7.03422,-142.84575 z m -247.125,0.4375 c 14.42367,57.34082 -10.36104,113.92736 -15.30474,170.73005 21.8294,-49.25038 56.27989,-109.20365 23.41791,-161.43713 -2.26679,-3.48447 -5.24225,-6.32347 -8.11317,-9.29292 z m 538.15625,43.03125 c -8.48042,64.26196 -4.51883,130.08115 15.2784,191.90997 3.10664,21.8999 4.52238,92.984 17.14721,34.7093 6.73561,-57.64448 -11.05841,-114.56681 -15.70081,-171.86574 -2.90067,-18.90065 -7.38339,-37.90051 -16.7248,-54.75353 z m -323.28125,15.46875 c -35.63591,42.58968 -39.41337,103.23934 -77.91365,143.97061 -5.81007,34.07768 -45.96101,65.94091 -30.6409,101.01391 36.78976,-45.9439 47.82941,-107.67151 87.77253,-151.51783 13.2058,-29.31068 20.06648,-61.36023 20.78202,-93.46669 z m -290.125,3.125 c 0.960502,2.73253 -6.257548,-1.85445 0,0 z m 722.40625,24.9375 c -4.20611,20.4144 -25.3875,120.23251 4.59585,72.02918 5.46219,-23.5523 9.29783,-50.49848 -4.59585,-72.02918 z M 1024,881.58093 c -27.66002,45.18288 -19.5274,103.26702 -31.30106,152.55467 34.25246,41.7487 32.66826,-46.91496 31.91496,-70.13307 -2.7838,-52.91379 -24.74053,76.24507 -18.5258,9.21096 6.9689,-30.23676 22.1432,-59.81 17.9119,-91.63256 z M 80.1875,893.23718 C 76.719702,923.05664 35.076603,982.02524 53.834393,992.88093 76.38176,966.05701 93.836083,928.17756 80.1875,893.23718 z m 752.40625,4.9375 c -34.07429,45.85977 -40.22179,105.71542 -72.70973,152.46022 47.08719,-29.1431 65.4124,-91.54333 73.58009,-142.85705 l -0.87036,-9.60317 0,0 z m -479.8125,19.53125 c -34.47109,12.87159 -21.2242,103.61417 7.48069,84.70687 0.0955,-28.37001 -1.33771,-56.92956 -7.48069,-84.70687 z M 735,926.26843 c 20.5811,36.92386 -20.26083,88.85827 10.23739,119.26347 C 770.3008,1009.2288 755.62542,960.84821 735,926.26843 z m -573.0625,0.5625 c -25.38791,33.93494 -53.80561,23.20047 -63.328133,66.53754 -19.913738,17.26823 -30.709528,83.00533 8.785853,43.46363 29.05124,-30.5501 31.02961,-76.09183 54.54228,-110.00117 z m 828.1875,0.84375 c -10.06957,32.41225 -38.9327,106.54112 -10.65778,118.45632 24.94978,-34.8928 -8.95704,-81.51645 10.65778,-118.45632 z m -317.21875,3.8125 c 1.79137,30.64851 -4.01922,112.45582 25.77668,108.61022 10.66131,-37.6475 -4.23331,-77.74444 -25.77668,-108.61022 z m -349.96875,37.1875 c -9.33011,21.65116 -42.40415,71.53192 -2.85264,78.70182 11.78937,-24.7196 6.60637,-52.78343 2.85264,-78.70182 z m -68,12.15625 c -14.31527,16.99267 -79.43302,64.91797 -28.70159,71.12887 25.64219,-13.4408 26.81827,-45.8668 28.70159,-71.12887 z m 703.96875,10.0625 c -28.63099,5.4852 -32.36533,89.33277 -4.02787,42.15137 2.80199,-13.8585 4.22062,-28.009 4.02787,-42.15137 z m -104,8.34375 c -23.00792,3.62602 -29.01476,77.36972 -6.37059,33.63442 3.34297,-10.9247 5.90908,-22.18 6.37059,-33.63442 z m -854.5625,3.71872 0.0712302,2.6922 -0.0712302,-2.6922 z m 335.0625,10.125 c -30.99822,21.2572 44.0365,54.2926 10.31697,16.4774 l -5.51566,-8.0159 -4.80131,-8.4615 z m -39.15625,0.1875 c -24.76565,7.1761 -4.63399,58.5623 0.8894,20.0298 l -0.0981,-10.0313 -0.79131,-9.9985 z m -127.75,8.3438 c -33.13639,8.2886 -2.08405,48.3436 -0.0691,7.301 0.0231,-2.4337 0.0461,-4.8673 0.0691,-7.301 z"
       id="path3089"
       inkscape:connector-curvature="0" />
  </g>
</svg>
